<svg width="141" height="48" viewBox="0 0 141 48" fill="none" xmlns="http://www.w3.org/2000/svg">
<path d="M25.6425 16.5C25.6425 17.8807 26.9577 19 28.58 19C30.2023 19 31.5175 17.8807 31.5175 16.5V6.5C31.5175 5.11929 30.2023 4 28.58 4C26.9577 4 25.6425 5.11929 25.6425 6.5V16.5Z" fill="#666666"/>
<path d="M25.6425 41.5C25.6425 42.8807 26.9577 44 28.58 44C30.2023 44 31.5175 42.8807 31.5175 41.5V31.5C31.5175 30.1193 30.2023 29 28.58 29C26.9577 29 25.6425 30.1193 25.6425 31.5V41.5Z" fill="#666666"/>
<path d="M32.735 20.4645C31.5878 19.4881 31.5878 17.9052 32.735 16.9289L41.0435 9.85785C42.1907 8.88154 44.0506 8.88154 45.1978 9.85785C46.3449 10.8342 46.3449 12.4171 45.1977 13.3934L36.8892 20.4645C35.7421 21.4408 33.8822 21.4408 32.735 20.4645Z" fill="#666666"/>
<path d="M11.9637 34.6066C10.8166 35.5829 10.8166 37.1658 11.9637 38.1421C13.1109 39.1184 14.9708 39.1184 16.118 38.1421L24.4265 31.0711C25.5737 30.0947 25.5737 28.5118 24.4265 27.5355C23.2793 26.5592 21.4194 26.5592 20.2722 27.5355L11.9637 34.6066Z" fill="#666666"/>
<path d="M32.7346 27.5355C33.8817 26.5592 35.7416 26.5592 36.8888 27.5355L45.1973 34.6066C46.3445 35.5829 46.3445 37.1658 45.1973 38.1421C44.0501 39.1185 42.1902 39.1185 41.0431 38.1421L32.7346 31.0711C31.5874 30.0948 31.5874 28.5119 32.7346 27.5355Z" fill="#666666"/>
<path d="M16.1175 9.85788C14.9704 8.88157 13.1105 8.88157 11.9633 9.85788C10.8161 10.8342 10.8161 12.4171 11.9633 13.3934L20.2718 20.4645C21.419 21.4408 23.2789 21.4408 24.426 20.4645C25.5732 19.4882 25.5732 17.9053 24.426 16.929L16.1175 9.85788Z" fill="#666666"/>
<path d="M34.455 24C34.455 22.6193 35.7702 21.5 37.3925 21.5H49.1425C50.7648 21.5 52.08 22.6193 52.08 24C52.08 25.3807 50.7648 26.5 49.1425 26.5H37.3925C35.7702 26.5 34.455 25.3807 34.455 24Z" fill="#666666"/>
<path d="M8.0175 21.5C6.39517 21.5 5.08 22.6193 5.08 24C5.08 25.3807 6.39517 26.5 8.0175 26.5L19.7675 26.5C21.3898 26.5 22.705 25.3807 22.705 24C22.705 22.6193 21.3898 21.5 19.7675 21.5L8.0175 21.5Z" fill="#666666"/>
<path d="M71.1084 31.1431V35H61.02V31.1431H71.1084ZM62.4703 11.795V35H57.8006V11.795H62.4703ZM69.7537 21.1981V24.9434H61.02V21.1981H69.7537ZM71.0766 11.795V15.6678H61.02V11.795H71.0766ZM80.5193 31.6157V13.25H84.4983V35L80.9016 35.0142L80.5193 31.6157ZM72.5755 27.8774V26.8579C72.5755 25.6118 72.6793 24.5215 72.887 23.5869C73.1041 22.6523 73.4251 21.8735 73.8499 21.2505C74.2747 20.6274 74.7939 20.1649 75.4075 19.8628C76.0305 19.5513 76.7433 19.3955 77.5457 19.3955C78.2726 19.3955 78.9098 19.5796 79.4573 19.9478C80.0143 20.3065 80.4863 20.8115 80.8733 21.4629C81.2603 22.1143 81.5719 22.8836 81.8079 23.771C82.0439 24.6584 82.2091 25.6307 82.3035 26.688V28.1606C82.1902 29.1613 82.0156 30.0959 81.7796 30.9644C81.553 31.8328 81.2415 32.5881 80.845 33.23C80.4579 33.8719 79.9907 34.377 79.4431 34.7451C78.8956 35.1038 78.2584 35.2832 77.5315 35.2832C76.7291 35.2832 76.0164 35.1227 75.3933 34.8018C74.7797 34.4808 74.2605 34.0088 73.8357 33.3857C73.4203 32.7533 73.1041 31.9792 72.887 31.0635C72.6793 30.1383 72.5755 29.0763 72.5755 27.8774ZM76.5403 26.8579V27.8774C76.5403 28.5949 76.5733 29.2132 76.6394 29.7324C76.7149 30.2422 76.8329 30.6623 76.9934 30.9927C77.1633 31.3136 77.3852 31.5544 77.6589 31.7148C77.9327 31.8659 78.2726 31.9414 78.6785 31.9414C79.2071 31.9414 79.6367 31.8092 79.9671 31.5449C80.2975 31.2712 80.5429 30.8983 80.7034 30.4263C80.8733 29.9448 80.9677 29.3926 80.9866 28.7695V26.0933C80.9677 25.5741 80.9063 25.1068 80.8025 24.6914C80.6987 24.276 80.5523 23.922 80.3635 23.6294C80.1747 23.3368 79.9387 23.1102 79.6555 22.9497C79.3818 22.7892 79.0608 22.709 78.6926 22.709C78.2962 22.709 77.9563 22.7892 77.6731 22.9497C77.3993 23.1102 77.1822 23.3604 77.0217 23.7002C76.8613 24.0306 76.7385 24.4601 76.6536 24.9888C76.5781 25.508 76.5403 26.131 76.5403 26.8579ZM95.2532 19.6787H98.8499V35C98.8499 36.3971 98.5809 37.5394 98.0428 38.4268C97.5141 39.3236 96.7731 39.9797 95.8196 40.395C94.8756 40.8198 93.7711 41.0322 92.5062 41.0322C92.0247 41.0322 91.4819 40.9661 90.8777 40.834C90.283 40.7018 89.7072 40.4989 89.1502 40.2251C88.5932 39.9608 88.1354 39.6398 87.7767 39.2622L89.1219 36.5151C89.49 36.8833 89.9715 37.1948 90.5662 37.4497C91.1609 37.714 91.7462 37.8462 92.3221 37.8462C92.879 37.8462 93.3416 37.7565 93.7098 37.5771C94.0874 37.4072 94.3706 37.1146 94.5594 36.6992C94.7576 36.2839 94.8567 35.7269 94.8567 35.0283V23.2329L95.2532 19.6787ZM86.7005 27.8774V26.8579C86.7005 25.6118 86.8185 24.5215 87.0545 23.5869C87.2905 22.6523 87.6303 21.8735 88.074 21.2505C88.5177 20.6274 89.0605 20.1649 89.7024 19.8628C90.3538 19.5513 91.0807 19.3955 91.8831 19.3955C92.7233 19.3955 93.4266 19.5796 93.993 19.9478C94.5594 20.3065 95.0172 20.8115 95.3665 21.4629C95.7252 22.1143 95.999 22.8836 96.1878 23.771C96.386 24.6584 96.5371 25.6307 96.6409 26.688V28.1606C96.5371 29.1613 96.3672 30.0959 96.1312 30.9644C95.9046 31.8328 95.6025 32.5881 95.2249 33.23C94.8473 33.8719 94.3847 34.377 93.8372 34.7451C93.2897 35.1038 92.6289 35.2832 91.8548 35.2832C91.0618 35.2832 90.3444 35.1227 89.7024 34.8018C89.07 34.4808 88.5272 34.0088 88.074 33.3857C87.6303 32.7533 87.2905 31.9792 87.0545 31.0635C86.8185 30.1383 86.7005 29.0763 86.7005 27.8774ZM90.6795 26.8579V27.8774C90.6795 28.5949 90.722 29.2132 90.8069 29.7324C90.9013 30.2422 91.0429 30.6623 91.2317 30.9927C91.4205 31.3136 91.6613 31.5544 91.9539 31.7148C92.256 31.8659 92.61 31.9414 93.0159 31.9414C93.5918 31.9414 94.0496 31.8092 94.3895 31.5449C94.7387 31.2712 94.9936 30.8983 95.1541 30.4263C95.324 29.9448 95.4184 29.3926 95.4373 28.7695V26.0933C95.4279 25.5741 95.3665 25.1068 95.2532 24.6914C95.1494 24.276 95.0031 23.922 94.8143 23.6294C94.6255 23.3368 94.38 23.1102 94.0779 22.9497C93.7853 22.7892 93.4407 22.709 93.0442 22.709C92.6383 22.709 92.289 22.7892 91.9964 22.9497C91.7037 23.1102 91.4583 23.3604 91.2601 23.7002C91.0713 24.0306 90.9249 24.4601 90.8211 24.9888C90.7267 25.508 90.6795 26.131 90.6795 26.8579ZM105.682 19.6787V35H101.703V19.6787H105.682ZM101.519 15.6997C101.519 15.0861 101.713 14.5811 102.1 14.1846C102.496 13.7881 103.03 13.5898 103.7 13.5898C104.361 13.5898 104.885 13.7881 105.272 14.1846C105.659 14.5811 105.852 15.0861 105.852 15.6997C105.852 16.3133 105.659 16.8231 105.272 17.229C104.885 17.6255 104.361 17.8237 103.7 17.8237C103.03 17.8237 102.496 17.6255 102.1 17.229C101.713 16.8231 101.519 16.3133 101.519 15.6997ZM108.083 27.8633V26.8296C108.083 25.6307 108.224 24.5687 108.508 23.6436C108.8 22.7184 109.216 21.9443 109.754 21.3213C110.292 20.6888 110.939 20.2121 111.694 19.8911C112.458 19.5607 113.313 19.3955 114.257 19.3955C115.21 19.3955 116.065 19.5607 116.82 19.8911C117.584 20.2121 118.236 20.6888 118.774 21.3213C119.321 21.9443 119.741 22.7184 120.034 23.6436C120.327 24.5687 120.473 25.6307 120.473 26.8296V27.8633C120.473 29.0527 120.327 30.11 120.034 31.0352C119.741 31.9603 119.321 32.7391 118.774 33.3716C118.236 34.0041 117.589 34.4808 116.834 34.8018C116.079 35.1227 115.229 35.2832 114.285 35.2832C113.341 35.2832 112.487 35.1227 111.722 34.8018C110.967 34.4808 110.315 34.0041 109.768 33.3716C109.22 32.7391 108.8 31.9603 108.508 31.0352C108.224 30.11 108.083 29.0527 108.083 27.8633ZM112.048 26.8296V27.8633C112.048 28.5713 112.095 29.1849 112.189 29.7041C112.293 30.2233 112.44 30.6528 112.628 30.9927C112.827 31.3325 113.063 31.5827 113.336 31.7432C113.61 31.9036 113.926 31.9839 114.285 31.9839C114.644 31.9839 114.965 31.9036 115.248 31.7432C115.531 31.5827 115.762 31.3325 115.942 30.9927C116.131 30.6528 116.267 30.2233 116.352 29.7041C116.447 29.1849 116.494 28.5713 116.494 27.8633V26.8296C116.494 26.1405 116.442 25.5363 116.338 25.0171C116.234 24.4884 116.088 24.0589 115.899 23.7285C115.71 23.3887 115.474 23.1338 115.191 22.9639C114.918 22.7845 114.606 22.6948 114.257 22.6948C113.907 22.6948 113.596 22.7845 113.322 22.9639C113.058 23.1338 112.827 23.3887 112.628 23.7285C112.44 24.0589 112.293 24.4884 112.189 25.0171C112.095 25.5363 112.048 26.1405 112.048 26.8296ZM122.236 27.8633V26.8296C122.236 25.6307 122.378 24.5687 122.661 23.6436C122.954 22.7184 123.369 21.9443 123.907 21.3213C124.445 20.6888 125.092 20.2121 125.847 19.8911C126.612 19.5607 127.466 19.3955 128.41 19.3955C129.364 19.3955 130.218 19.5607 130.973 19.8911C131.738 20.2121 132.389 20.6888 132.927 21.3213C133.475 21.9443 133.895 22.7184 134.187 23.6436C134.48 24.5687 134.626 25.6307 134.626 26.8296V27.8633C134.626 29.0527 134.48 30.11 134.187 31.0352C133.895 31.9603 133.475 32.7391 132.927 33.3716C132.389 34.0041 131.742 34.4808 130.987 34.8018C130.232 35.1227 129.382 35.2832 128.438 35.2832C127.494 35.2832 126.64 35.1227 125.875 34.8018C125.12 34.4808 124.469 34.0041 123.921 33.3716C123.374 32.7391 122.954 31.9603 122.661 31.0352C122.378 30.11 122.236 29.0527 122.236 27.8633ZM126.201 26.8296V27.8633C126.201 28.5713 126.248 29.1849 126.343 29.7041C126.447 30.2233 126.593 30.6528 126.782 30.9927C126.98 31.3325 127.216 31.5827 127.49 31.7432C127.763 31.9036 128.08 31.9839 128.438 31.9839C128.797 31.9839 129.118 31.9036 129.401 31.7432C129.684 31.5827 129.916 31.3325 130.095 30.9927C130.284 30.6528 130.421 30.2233 130.506 29.7041C130.6 29.1849 130.647 28.5713 130.647 27.8633V26.8296C130.647 26.1405 130.595 25.5363 130.492 25.0171C130.388 24.4884 130.241 24.0589 130.053 23.7285C129.864 23.3887 129.628 23.1338 129.345 22.9639C129.071 22.7845 128.759 22.6948 128.41 22.6948C128.061 22.6948 127.749 22.7845 127.476 22.9639C127.211 23.1338 126.98 23.3887 126.782 23.7285C126.593 24.0589 126.447 24.4884 126.343 25.0171C126.248 25.5363 126.201 26.1405 126.201 26.8296Z" fill="#666666"/>
</svg>
