<svg width="125" height="44" viewBox="0 0 125 44" fill="none" xmlns="http://www.w3.org/2000/svg">
<g clip-path="url(#clip0_1202_4145)">
<path d="M22.6937 15.3511C22.6937 16.5751 23.8596 17.5674 25.2979 17.5674C26.7361 17.5674 27.9021 16.5751 27.9021 15.3511V6.48584C27.9021 5.26181 26.7361 4.26953 25.2979 4.26953C23.8596 4.26953 22.6937 5.26181 22.6937 6.48584V15.3511Z" fill="#666666"/>
<path d="M22.6937 37.5142C22.6937 38.7382 23.8596 39.7305 25.2979 39.7305C26.7361 39.7305 27.9021 38.7382 27.9021 37.5142V28.649C27.9021 27.4249 26.7361 26.4326 25.2979 26.4326C23.8596 26.4326 22.6937 27.4249 22.6937 28.649V37.5142Z" fill="#666666"/>
<path d="M28.9814 18.8657C27.9644 18.0002 27.9644 16.5969 28.9814 15.7313L36.3471 9.46266C37.3641 8.59714 39.013 8.59714 40.0299 9.46266C41.0469 10.3282 41.0469 11.7315 40.0299 12.597L32.6642 18.8657C31.6473 19.7312 29.9984 19.7312 28.9814 18.8657Z" fill="#666666"/>
<path d="M10.5672 31.403C9.55016 32.2686 9.55016 33.6718 10.5672 34.5374C11.5841 35.4029 13.233 35.4029 14.25 34.5374L21.6157 28.2687C22.6327 27.4032 22.6327 25.9999 21.6157 25.1344C20.5987 24.2688 18.9498 24.2688 17.9329 25.1344L10.5672 31.403Z" fill="#666666"/>
<path d="M28.981 25.1344C29.998 24.2689 31.6469 24.2689 32.6638 25.1344L40.0295 31.4031C41.0465 32.2686 41.0465 33.6719 40.0295 34.5374C39.0126 35.4029 37.3637 35.4029 36.3467 34.5374L28.981 28.2687C27.964 27.4032 27.964 25.9999 28.981 25.1344Z" fill="#666666"/>
<path d="M14.2496 9.46269C13.2326 8.59717 11.5838 8.59717 10.5668 9.46269C9.54977 10.3282 9.54977 11.7315 10.5668 12.597L17.9325 18.8657C18.9494 19.7312 20.5983 19.7312 21.6153 18.8657C22.6323 18.0002 22.6323 16.5969 21.6153 15.7314L14.2496 9.46269Z" fill="#666666"/>
<path d="M30.5062 22C30.5062 20.776 31.6721 19.7837 33.1104 19.7837H43.5271C44.9653 19.7837 46.1312 20.776 46.1312 22C46.1312 23.2241 44.9653 24.2163 43.5271 24.2163H33.1104C31.6721 24.2163 30.5062 23.2241 30.5062 22Z" fill="#666666"/>
<path d="M7.06872 19.7837C5.63048 19.7837 4.46455 20.776 4.46455 22C4.46455 23.2241 5.63048 24.2163 7.06872 24.2163L17.4854 24.2163C18.9236 24.2163 20.0896 23.2241 20.0896 22C20.0896 20.776 18.9236 19.7837 17.4854 19.7837L7.06872 19.7837Z" fill="#666666"/>
<path d="M63.0004 28.5808V32H54.0567V28.5808H63.0004ZM55.3425 11.4282V32H51.2027V11.4282H55.3425ZM61.7994 19.7643V23.0846H54.0567V19.7643H61.7994ZM62.9721 11.4282V14.8615H54.0567V11.4282H62.9721ZM71.3434 28.9998V12.7181H74.8708V32L71.6823 32.0126L71.3434 28.9998ZM64.3009 25.6857V24.7818C64.3009 23.6771 64.393 22.7105 64.5771 21.882C64.7696 21.0535 65.0541 20.3631 65.4307 19.8107C65.8073 19.2584 66.2676 18.8483 66.8116 18.5805C67.3639 18.3043 67.9958 18.1662 68.7072 18.1662C69.3516 18.1662 69.9165 18.3294 70.4019 18.6558C70.8956 18.9738 71.3141 19.4216 71.6572 19.999C72.0003 20.5765 72.2765 21.2585 72.4857 22.0452C72.6949 22.8319 72.8414 23.6939 72.9251 24.6312V25.9367C72.8246 26.8238 72.6698 27.6524 72.4606 28.4223C72.2597 29.1922 71.9836 29.8617 71.6321 30.4308C71.289 30.9999 70.8747 31.4477 70.3893 31.774C69.9039 32.0921 69.339 32.2511 68.6946 32.2511C67.9832 32.2511 67.3514 32.1088 66.799 31.8243C66.2551 31.5397 65.7948 31.1213 65.4182 30.5689C65.05 30.0082 64.7696 29.322 64.5771 28.5102C64.393 27.69 64.3009 26.7485 64.3009 25.6857ZM67.8159 24.7818V25.6857C67.8159 26.3217 67.8452 26.8699 67.9037 27.3302C67.9707 27.7821 68.0753 28.1545 68.2176 28.4474C68.3682 28.7319 68.5649 28.9454 68.8076 29.0876C69.0503 29.2215 69.3516 29.2885 69.7114 29.2885C70.1801 29.2885 70.5609 29.1713 70.8538 28.937C71.1467 28.6943 71.3643 28.3637 71.5065 27.9453C71.6572 27.5185 71.7409 27.0289 71.7576 26.4765V24.104C71.7409 23.6437 71.6865 23.2294 71.5944 22.8612C71.5024 22.4929 71.3726 22.1791 71.2053 21.9197C71.0379 21.6602 70.8287 21.4594 70.5776 21.3171C70.3349 21.1748 70.0504 21.1037 69.724 21.1037C69.3725 21.1037 69.0712 21.1748 68.8201 21.3171C68.5774 21.4594 68.385 21.6812 68.2427 21.9824C68.1004 22.2754 67.9916 22.6561 67.9163 23.1248C67.8493 23.5851 67.8159 24.1374 67.8159 24.7818ZM84.4053 18.4173H87.5939V32C87.5939 33.2386 87.3554 34.2512 86.8784 35.0379C86.4097 35.833 85.7527 36.4146 84.9075 36.7828C84.0706 37.1594 83.0914 37.3477 81.97 37.3477C81.5432 37.3477 81.062 37.2891 80.5264 37.172C79.9991 37.0548 79.4886 36.8749 78.9949 36.6322C78.5011 36.3979 78.0952 36.1133 77.7772 35.7786L78.9698 33.3432C79.2961 33.6696 79.723 33.9458 80.2502 34.1717C80.7774 34.4061 81.2963 34.5232 81.8068 34.5232C82.3006 34.5232 82.7106 34.4437 83.037 34.2847C83.3718 34.1341 83.6229 33.8746 83.7902 33.5064C83.966 33.1382 84.0539 32.6444 84.0539 32.0251V21.5682L84.4053 18.4173ZM76.8231 25.6857V24.7818C76.8231 23.6771 76.9277 22.7105 77.137 21.882C77.3462 21.0535 77.6475 20.3631 78.0408 19.8107C78.4341 19.2584 78.9154 18.8483 79.4844 18.5805C80.0619 18.3043 80.7063 18.1662 81.4177 18.1662C82.1625 18.1662 82.786 18.3294 83.2881 18.6558C83.7902 18.9738 84.1961 19.4216 84.5058 19.999C84.8238 20.5765 85.0665 21.2585 85.2339 22.0452C85.4096 22.8319 85.5435 23.6939 85.6356 24.6312V25.9367C85.5435 26.8238 85.3929 27.6524 85.1837 28.4223C84.9828 29.1922 84.715 29.8617 84.3802 30.4308C84.0455 30.9999 83.6354 31.4477 83.15 31.774C82.6646 32.0921 82.0788 32.2511 81.3925 32.2511C80.6896 32.2511 80.0535 32.1088 79.4844 31.8243C78.9237 31.5397 78.4425 31.1213 78.0408 30.5689C77.6475 30.0082 77.3462 29.322 77.137 28.5102C76.9277 27.69 76.8231 26.7485 76.8231 25.6857ZM80.3506 24.7818V25.6857C80.3506 26.3217 80.3883 26.8699 80.4636 27.3302C80.5473 27.7821 80.6728 28.1545 80.8402 28.4474C81.0076 28.7319 81.221 28.9454 81.4804 29.0876C81.7482 29.2215 82.0621 29.2885 82.4219 29.2885C82.9324 29.2885 83.3383 29.1713 83.6396 28.937C83.9492 28.6943 84.1752 28.3637 84.3175 27.9453C84.4681 27.5185 84.5518 27.0289 84.5685 26.4765V24.104C84.5602 23.6437 84.5058 23.2294 84.4053 22.8612C84.3133 22.4929 84.1836 22.1791 84.0162 21.9197C83.8488 21.6602 83.6312 21.4594 83.3634 21.3171C83.104 21.1748 82.7985 21.1037 82.447 21.1037C82.0872 21.1037 81.7775 21.1748 81.5181 21.3171C81.2586 21.4594 81.0411 21.6812 80.8653 21.9824C80.6979 22.2754 80.5682 22.6561 80.4762 23.1248C80.3925 23.5851 80.3506 24.1374 80.3506 24.7818ZM93.6511 18.4173V32H90.1236V18.4173H93.6511ZM89.9604 14.8898C89.9604 14.3458 90.132 13.8981 90.4751 13.5466C90.8266 13.1951 91.2995 13.0194 91.8937 13.0194C92.4795 13.0194 92.944 13.1951 93.2871 13.5466C93.6302 13.8981 93.8018 14.3458 93.8018 14.8898C93.8018 15.4338 93.6302 15.8857 93.2871 16.2456C92.944 16.5971 92.4795 16.7728 91.8937 16.7728C91.2995 16.7728 90.8266 16.5971 90.4751 16.2456C90.132 15.8857 89.9604 15.4338 89.9604 14.8898ZM95.7792 25.6731V24.7567C95.7792 23.6939 95.9047 22.7524 96.1558 21.9322C96.4152 21.1121 96.7834 20.4258 97.2605 19.8735C97.7375 19.3128 98.3108 18.8901 98.9803 18.6056C99.6581 18.3127 100.416 18.1662 101.252 18.1662C102.098 18.1662 102.855 18.3127 103.525 18.6056C104.202 18.8901 104.78 19.3128 105.257 19.8735C105.742 20.4258 106.115 21.1121 106.374 21.9322C106.634 22.7524 106.763 23.6939 106.763 24.7567V25.6731C106.763 26.7276 106.634 27.6649 106.374 28.4851C106.115 29.3052 105.742 29.9957 105.257 30.5564C104.78 31.1171 104.207 31.5397 103.537 31.8243C102.868 32.1088 102.114 32.2511 101.278 32.2511C100.441 32.2511 99.6832 32.1088 99.0054 31.8243C98.3359 31.5397 97.7584 31.1171 97.273 30.5564C96.7876 29.9957 96.4152 29.3052 96.1558 28.4851C95.9047 27.6649 95.7792 26.7276 95.7792 25.6731ZM99.2941 24.7567V25.6731C99.2941 26.3008 99.3359 26.8448 99.4196 27.3051C99.5117 27.7653 99.6414 28.1461 99.8088 28.4474C99.9845 28.7487 100.194 28.9705 100.436 29.1127C100.679 29.255 100.96 29.3261 101.278 29.3261C101.596 29.3261 101.88 29.255 102.131 29.1127C102.382 28.9705 102.587 28.7487 102.746 28.4474C102.914 28.1461 103.035 27.7653 103.11 27.3051C103.194 26.8448 103.236 26.3008 103.236 25.6731V24.7567C103.236 24.1458 103.19 23.6102 103.098 23.1499C103.006 22.6812 102.876 22.3005 102.709 22.0075C102.541 21.7063 102.332 21.4803 102.081 21.3297C101.838 21.1707 101.562 21.0912 101.252 21.0912C100.943 21.0912 100.667 21.1707 100.424 21.3297C100.19 21.4803 99.9845 21.7063 99.8088 22.0075C99.6414 22.3005 99.5117 22.6812 99.4196 23.1499C99.3359 23.6102 99.2941 24.1458 99.2941 24.7567ZM108.326 25.6731V24.7567C108.326 23.6939 108.452 22.7524 108.703 21.9322C108.963 21.1121 109.331 20.4258 109.808 19.8735C110.285 19.3128 110.858 18.8901 111.528 18.6056C112.205 18.3127 112.963 18.1662 113.8 18.1662C114.645 18.1662 115.402 18.3127 116.072 18.6056C116.75 18.8901 117.327 19.3128 117.804 19.8735C118.29 20.4258 118.662 21.1121 118.921 21.9322C119.181 22.7524 119.311 23.6939 119.311 24.7567V25.6731C119.311 26.7276 119.181 27.6649 118.921 28.4851C118.662 29.3052 118.29 29.9957 117.804 30.5564C117.327 31.1171 116.754 31.5397 116.084 31.8243C115.415 32.1088 114.662 32.2511 113.825 32.2511C112.988 32.2511 112.231 32.1088 111.553 31.8243C110.883 31.5397 110.306 31.1171 109.82 30.5564C109.335 29.9957 108.963 29.3052 108.703 28.4851C108.452 27.6649 108.326 26.7276 108.326 25.6731ZM111.841 24.7567V25.6731C111.841 26.3008 111.883 26.8448 111.967 27.3051C112.059 27.7653 112.189 28.1461 112.356 28.4474C112.532 28.7487 112.741 28.9705 112.984 29.1127C113.226 29.255 113.507 29.3261 113.825 29.3261C114.143 29.3261 114.427 29.255 114.678 29.1127C114.93 28.9705 115.135 28.7487 115.294 28.4474C115.461 28.1461 115.582 27.7653 115.658 27.3051C115.741 26.8448 115.783 26.3008 115.783 25.6731V24.7567C115.783 24.1458 115.737 23.6102 115.645 23.1499C115.553 22.6812 115.423 22.3005 115.256 22.0075C115.089 21.7063 114.879 21.4803 114.628 21.3297C114.386 21.1707 114.109 21.0912 113.8 21.0912C113.49 21.0912 113.214 21.1707 112.971 21.3297C112.737 21.4803 112.532 21.7063 112.356 22.0075C112.189 22.3005 112.059 22.6812 111.967 23.1499C111.883 23.6102 111.841 24.1458 111.841 24.7567Z" fill="#666666"/>
</g>
<defs>
<clipPath id="clip0_1202_4145">
<rect width="125" height="42.5532" fill="white" transform="translate(0 0.723389)"/>
</clipPath>
</defs>
</svg>
