<svg width="141" height="48" viewBox="0 0 141 48" fill="none" xmlns="http://www.w3.org/2000/svg">
<path d="M23.58 16.5C23.58 17.8807 24.9231 19 26.58 19C28.2369 19 29.58 17.8807 29.58 16.5V6.5C29.58 5.11929 28.2369 4 26.58 4C24.9231 4 23.58 5.11929 23.58 6.5V16.5Z" fill="#666666"/>
<path d="M23.58 41.5C23.58 42.8807 24.9231 44 26.58 44C28.2369 44 29.58 42.8807 29.58 41.5V31.5C29.58 30.1193 28.2369 29 26.58 29C24.9231 29 23.58 30.1193 23.58 31.5V41.5Z" fill="#666666"/>
<path d="M30.8234 20.4645C29.6518 19.4881 29.6518 17.9052 30.8234 16.9289L39.3087 9.85785C40.4803 8.88154 42.3798 8.88154 43.5513 9.85785C44.7229 10.8342 44.7229 12.4171 43.5513 13.3934L35.066 20.4645C33.8945 21.4408 31.995 21.4408 30.8234 20.4645Z" fill="#666666"/>
<path d="M9.6102 34.6066C8.43863 35.5829 8.43862 37.1658 9.6102 38.1421C10.7818 39.1184 12.6813 39.1184 13.8528 38.1421L22.3381 31.0711C23.5097 30.0947 23.5097 28.5118 22.3381 27.5355C21.1665 26.5592 19.2671 26.5592 18.0955 27.5355L9.6102 34.6066Z" fill="#666666"/>
<path d="M30.8229 27.5355C31.9945 26.5592 33.894 26.5592 35.0656 27.5355L43.5509 34.6066C44.7224 35.5829 44.7224 37.1658 43.5509 38.1421C42.3793 39.1185 40.4798 39.1185 39.3082 38.1421L30.8229 31.0711C29.6514 30.0948 29.6514 28.5119 30.8229 27.5355Z" fill="#666666"/>
<path d="M13.8524 9.85788C12.6808 8.88157 10.7813 8.88157 9.60974 9.85788C8.43817 10.8342 8.43817 12.4171 9.60974 13.3934L18.095 20.4645C19.2666 21.4408 21.1661 21.4408 22.3377 20.4645C23.5092 19.4882 23.5092 17.9053 22.3377 16.929L13.8524 9.85788Z" fill="#666666"/>
<path d="M32.58 24C32.58 22.6193 33.9232 21.5 35.58 21.5H47.58C49.2369 21.5 50.58 22.6193 50.58 24C50.58 25.3807 49.2369 26.5 47.58 26.5H35.58C33.9231 26.5 32.58 25.3807 32.58 24Z" fill="#666666"/>
<path d="M5.58 21.5C3.92315 21.5 2.58 22.6193 2.58 24C2.58 25.3807 3.92315 26.5 5.58 26.5L17.58 26.5C19.2369 26.5 20.58 25.3807 20.58 24C20.58 22.6193 19.2369 21.5 17.58 21.5L5.58 21.5Z" fill="#666666"/>
<path d="M69.6084 31.1431V35H59.52V31.1431H69.6084ZM60.9703 11.795V35H56.3006V11.795H60.9703ZM68.2537 21.1981V24.9434H59.52V21.1981H68.2537ZM69.5766 11.795V15.6678H59.52V11.795H69.5766ZM79.5467 31.415V11.96H83.7617V35L79.9517 35.015L79.5467 31.415ZM71.1317 27.455V26.375C71.1317 25.055 71.2417 23.9 71.4617 22.91C71.6917 21.92 72.0317 21.095 72.4817 20.435C72.9317 19.775 73.4817 19.285 74.1317 18.965C74.7917 18.635 75.5467 18.47 76.3967 18.47C77.1667 18.47 77.8417 18.665 78.4217 19.055C79.0117 19.435 79.5117 19.97 79.9217 20.66C80.3317 21.35 80.6617 22.165 80.9117 23.105C81.1617 24.045 81.3367 25.075 81.4367 26.195V27.755C81.3167 28.815 81.1317 29.805 80.8817 30.725C80.6417 31.645 80.3117 32.445 79.8917 33.125C79.4817 33.805 78.9867 34.34 78.4067 34.73C77.8267 35.11 77.1517 35.3 76.3817 35.3C75.5317 35.3 74.7767 35.13 74.1167 34.79C73.4667 34.45 72.9167 33.95 72.4667 33.29C72.0267 32.62 71.6917 31.8 71.4617 30.83C71.2417 29.85 71.1317 28.725 71.1317 27.455ZM75.3317 26.375V27.455C75.3317 28.215 75.3667 28.87 75.4367 29.42C75.5167 29.96 75.6417 30.405 75.8117 30.755C75.9917 31.095 76.2267 31.35 76.5167 31.52C76.8067 31.68 77.1667 31.76 77.5967 31.76C78.1567 31.76 78.6117 31.62 78.9617 31.34C79.3117 31.05 79.5717 30.655 79.7417 30.155C79.9217 29.645 80.0217 29.06 80.0417 28.4V25.565C80.0217 25.015 79.9567 24.52 79.8467 24.08C79.7367 23.64 79.5817 23.265 79.3817 22.955C79.1817 22.645 78.9317 22.405 78.6317 22.235C78.3417 22.065 78.0017 21.98 77.6117 21.98C77.1917 21.98 76.8317 22.065 76.5317 22.235C76.2417 22.405 76.0117 22.67 75.8417 23.03C75.6717 23.38 75.5417 23.835 75.4517 24.395C75.3717 24.945 75.3317 25.605 75.3317 26.375ZM95.1545 18.77H98.9645V35C98.9645 36.48 98.6795 37.69 98.1095 38.63C97.5495 39.58 96.7645 40.275 95.7545 40.715C94.7545 41.165 93.5845 41.39 92.2445 41.39C91.7345 41.39 91.1595 41.32 90.5195 41.18C89.8895 41.04 89.2795 40.825 88.6895 40.535C88.0995 40.255 87.6145 39.915 87.2345 39.515L88.6595 36.605C89.0495 36.995 89.5595 37.325 90.1895 37.595C90.8195 37.875 91.4395 38.015 92.0495 38.015C92.6395 38.015 93.1295 37.92 93.5195 37.73C93.9195 37.55 94.2195 37.24 94.4195 36.8C94.6295 36.36 94.7345 35.77 94.7345 35.03V22.535L95.1545 18.77ZM86.0945 27.455V26.375C86.0945 25.055 86.2195 23.9 86.4695 22.91C86.7195 21.92 87.0795 21.095 87.5495 20.435C88.0195 19.775 88.5945 19.285 89.2745 18.965C89.9645 18.635 90.7345 18.47 91.5845 18.47C92.4745 18.47 93.2195 18.665 93.8195 19.055C94.4195 19.435 94.9045 19.97 95.2745 20.66C95.6545 21.35 95.9445 22.165 96.1445 23.105C96.3545 24.045 96.5145 25.075 96.6245 26.195V27.755C96.5145 28.815 96.3345 29.805 96.0845 30.725C95.8445 31.645 95.5245 32.445 95.1245 33.125C94.7245 33.805 94.2345 34.34 93.6545 34.73C93.0745 35.11 92.3745 35.3 91.5545 35.3C90.7145 35.3 89.9545 35.13 89.2745 34.79C88.6045 34.45 88.0295 33.95 87.5495 33.29C87.0795 32.62 86.7195 31.8 86.4695 30.83C86.2195 29.85 86.0945 28.725 86.0945 27.455ZM90.3095 26.375V27.455C90.3095 28.215 90.3545 28.87 90.4445 29.42C90.5445 29.96 90.6945 30.405 90.8945 30.755C91.0945 31.095 91.3495 31.35 91.6595 31.52C91.9795 31.68 92.3545 31.76 92.7845 31.76C93.3945 31.76 93.8795 31.62 94.2395 31.34C94.6095 31.05 94.8795 30.655 95.0495 30.155C95.2295 29.645 95.3295 29.06 95.3495 28.4V25.565C95.3395 25.015 95.2745 24.52 95.1545 24.08C95.0445 23.64 94.8895 23.265 94.6895 22.955C94.4895 22.645 94.2295 22.405 93.9095 22.235C93.5995 22.065 93.2345 21.98 92.8145 21.98C92.3845 21.98 92.0145 22.065 91.7045 22.235C91.3945 22.405 91.1345 22.67 90.9245 23.03C90.7245 23.38 90.5695 23.835 90.4595 24.395C90.3595 24.945 90.3095 25.605 90.3095 26.375ZM106.202 18.77V35H101.987V18.77H106.202ZM101.792 14.555C101.792 13.905 101.997 13.37 102.407 12.95C102.827 12.53 103.392 12.32 104.102 12.32C104.802 12.32 105.357 12.53 105.767 12.95C106.177 13.37 106.382 13.905 106.382 14.555C106.382 15.205 106.177 15.745 105.767 16.175C105.357 16.595 104.802 16.805 104.102 16.805C103.392 16.805 102.827 16.595 102.407 16.175C101.997 15.745 101.792 15.205 101.792 14.555ZM108.745 27.44V26.345C108.745 25.075 108.895 23.95 109.195 22.97C109.505 21.99 109.945 21.17 110.515 20.51C111.085 19.84 111.77 19.335 112.57 18.995C113.38 18.645 114.285 18.47 115.285 18.47C116.295 18.47 117.2 18.645 118 18.995C118.81 19.335 119.5 19.84 120.07 20.51C120.65 21.17 121.095 21.99 121.405 22.97C121.715 23.95 121.87 25.075 121.87 26.345V27.44C121.87 28.7 121.715 29.82 121.405 30.8C121.095 31.78 120.65 32.605 120.07 33.275C119.5 33.945 118.815 34.45 118.015 34.79C117.215 35.13 116.315 35.3 115.315 35.3C114.315 35.3 113.41 35.13 112.6 34.79C111.8 34.45 111.11 33.945 110.53 33.275C109.95 32.605 109.505 31.78 109.195 30.8C108.895 29.82 108.745 28.7 108.745 27.44ZM112.945 26.345V27.44C112.945 28.19 112.995 28.84 113.095 29.39C113.205 29.94 113.36 30.395 113.56 30.755C113.77 31.115 114.02 31.38 114.31 31.55C114.6 31.72 114.935 31.805 115.315 31.805C115.695 31.805 116.035 31.72 116.335 31.55C116.635 31.38 116.88 31.115 117.07 30.755C117.27 30.395 117.415 29.94 117.505 29.39C117.605 28.84 117.655 28.19 117.655 27.44V26.345C117.655 25.615 117.6 24.975 117.49 24.425C117.38 23.865 117.225 23.41 117.025 23.06C116.825 22.7 116.575 22.43 116.275 22.25C115.985 22.06 115.655 21.965 115.285 21.965C114.915 21.965 114.585 22.06 114.295 22.25C114.015 22.43 113.77 22.7 113.56 23.06C113.36 23.41 113.205 23.865 113.095 24.425C112.995 24.975 112.945 25.615 112.945 26.345ZM123.738 27.44V26.345C123.738 25.075 123.888 23.95 124.188 22.97C124.498 21.99 124.938 21.17 125.508 20.51C126.078 19.84 126.763 19.335 127.563 18.995C128.373 18.645 129.278 18.47 130.278 18.47C131.288 18.47 132.193 18.645 132.993 18.995C133.803 19.335 134.493 19.84 135.063 20.51C135.643 21.17 136.088 21.99 136.398 22.97C136.708 23.95 136.863 25.075 136.863 26.345V27.44C136.863 28.7 136.708 29.82 136.398 30.8C136.088 31.78 135.643 32.605 135.063 33.275C134.493 33.945 133.808 34.45 133.008 34.79C132.208 35.13 131.308 35.3 130.308 35.3C129.308 35.3 128.403 35.13 127.593 34.79C126.793 34.45 126.103 33.945 125.523 33.275C124.943 32.605 124.498 31.78 124.188 30.8C123.888 29.82 123.738 28.7 123.738 27.44ZM127.938 26.345V27.44C127.938 28.19 127.988 28.84 128.088 29.39C128.198 29.94 128.353 30.395 128.553 30.755C128.763 31.115 129.013 31.38 129.303 31.55C129.593 31.72 129.928 31.805 130.308 31.805C130.688 31.805 131.028 31.72 131.328 31.55C131.628 31.38 131.873 31.115 132.063 30.755C132.263 30.395 132.408 29.94 132.498 29.39C132.598 28.84 132.648 28.19 132.648 27.44V26.345C132.648 25.615 132.593 24.975 132.483 24.425C132.373 23.865 132.218 23.41 132.018 23.06C131.818 22.7 131.568 22.43 131.268 22.25C130.978 22.06 130.648 21.965 130.278 21.965C129.908 21.965 129.578 22.06 129.288 22.25C129.008 22.43 128.763 22.7 128.553 23.06C128.353 23.41 128.198 23.865 128.088 24.425C127.988 24.975 127.938 25.615 127.938 26.345Z" fill="#666666"/>
</svg>
