<svg width="522" height="536" viewBox="0 0 522 536" fill="none" xmlns="http://www.w3.org/2000/svg">
<rect width="522" height="536" rx="20" fill="#F7F8FA"/>
<circle opacity="0.12" cx="261" cy="268" r="144" stroke="#CDC5F7" stroke-width="2"/>
<circle opacity="0.12" cx="261" cy="268" r="192" stroke="#CDC5F7" stroke-width="2"/>
<circle opacity="0.12" cx="261" cy="268" r="235" stroke="#CDC5F7" stroke-width="2"/>
<path d="M56.8241 95.4014C56.4189 93.1034 57.9533 90.9121 60.2512 90.5069L80.7352 86.895C80.8905 86.8677 81.0502 86.9031 81.1793 86.9935L97.4333 98.3747C97.5624 98.4651 97.6503 98.603 97.6777 98.7583L103.095 129.484C103.501 131.782 101.966 133.974 99.6683 134.379L68.9423 139.797C66.6444 140.202 64.4531 138.667 64.0479 136.369L56.8241 95.4014Z" fill="white" stroke="#BEC5CB" stroke-width="1.95"/>
<path d="M80.6719 86.5752L82.3649 96.1771C82.8636 99.0053 85.5607 100.894 88.3889 100.395L97.9908 98.702" stroke="#BEC5CB" stroke-width="1.95"/>
<rect x="51.2578" y="114.66" width="37.8" height="21.2" rx="2.6" transform="rotate(-10 51.2578 114.66)" fill="#9181F1"/>
<path d="M57.4036 119.816L59.8313 119.388L63.4985 125.192L63.6077 125.173L65.0687 118.465L67.4965 118.037L69.1382 127.347L67.2288 127.684L66.1602 121.624L66.0829 121.638L64.7339 128.077L63.4337 128.306L59.9595 122.694L59.8822 122.707L60.9548 128.79L59.0454 129.127L57.4036 119.816ZM70.7602 127.061L69.1184 117.751L72.7918 117.103C73.498 116.978 74.1234 117.007 74.6681 117.189C75.2122 117.368 75.6565 117.673 76.0011 118.103C76.3481 118.529 76.5762 119.051 76.6852 119.67C76.7942 120.288 76.7571 120.857 76.5737 121.377C76.3904 121.897 76.0688 122.333 75.6092 122.686C75.1526 123.038 74.5666 123.278 73.8513 123.404L71.5099 123.817L71.2318 122.239L73.2549 121.882C73.6337 121.816 73.9344 121.695 74.157 121.522C74.382 121.345 74.5345 121.129 74.6146 120.874C74.6972 120.615 74.7115 120.333 74.6575 120.027C74.603 119.718 74.4933 119.459 74.3284 119.251C74.166 119.039 73.9494 118.891 73.6784 118.808C73.4069 118.721 73.0802 118.711 72.6983 118.779L71.3707 119.013L72.7287 126.714L70.7602 127.061ZM78.5652 123.998L78.2918 122.447L81.0991 115.638L82.4358 115.402L82.8141 117.548L82.0231 117.688L80.2564 121.998L80.2692 122.071L85.793 121.097L86.0712 122.674L78.5652 123.998ZM83.3228 124.846L82.9509 122.737L82.8662 122.044L81.7174 115.529L83.5633 115.204L85.205 124.514L83.3228 124.846Z" fill="white"/>
<path d="M419.049 75.8704C419.455 73.5724 421.646 72.038 423.944 72.4432L444.428 76.0551C444.583 76.0825 444.721 76.1704 444.811 76.2995L456.193 92.5535C456.283 92.6826 456.318 92.8423 456.291 92.9975L450.873 123.724C450.468 126.021 448.277 127.556 445.979 127.151L415.253 121.733C412.955 121.328 411.42 119.136 411.826 116.838L419.049 75.8704Z" fill="white" stroke="#BEC5CB" stroke-width="1.95"/>
<path d="M444.484 75.7349L442.791 85.3367C442.293 88.165 444.181 90.862 447.009 91.3607L456.611 93.0538" stroke="#BEC5CB" stroke-width="1.95"/>
<rect x="407.281" y="92.0732" width="33.8" height="21.2" rx="2.6" transform="rotate(10 407.281 92.0732)" fill="#CD4842"/>
<path d="M409.48 108.301L411.122 98.9905L414.795 99.6382C415.501 99.7628 416.079 100.004 416.529 100.361C416.979 100.715 417.292 101.154 417.469 101.675C417.649 102.195 417.685 102.764 417.576 103.382C417.467 104 417.237 104.522 416.887 104.948C416.537 105.374 416.086 105.674 415.533 105.848C414.983 106.023 414.351 106.048 413.636 105.922L411.294 105.509L411.573 103.931L413.596 104.288C413.975 104.355 414.298 104.345 414.567 104.258C414.839 104.168 415.056 104.017 415.218 103.805C415.384 103.591 415.494 103.33 415.548 103.024C415.603 102.715 415.588 102.434 415.505 102.182C415.424 101.927 415.271 101.714 415.045 101.543C414.82 101.369 414.516 101.248 414.134 101.181L412.807 100.947L411.449 108.649L409.48 108.301ZM421.07 110.345L417.769 109.763L419.411 100.452L422.739 101.039C423.675 101.204 424.449 101.533 425.059 102.025C425.67 102.514 426.096 103.137 426.337 103.895C426.581 104.654 426.618 105.517 426.448 106.484C426.277 107.454 425.946 108.255 425.457 108.887C424.97 109.52 424.353 109.963 423.605 110.215C422.861 110.469 422.015 110.512 421.07 110.345ZM420.035 108.423L421.285 108.644C421.867 108.746 422.375 108.73 422.808 108.594C423.245 108.455 423.602 108.185 423.879 107.784C424.16 107.38 424.361 106.831 424.484 106.137C424.605 105.449 424.603 104.869 424.476 104.397C424.353 103.925 424.111 103.551 423.751 103.275C423.39 102.999 422.919 102.81 422.337 102.707L421.082 102.486L420.035 108.423ZM427.083 111.405L428.725 102.094L434.89 103.181L434.604 104.805L430.408 104.065L430.016 106.283L433.803 106.951L433.517 108.574L429.73 107.906L429.052 111.752L427.083 111.405Z" fill="white"/>
<path d="M243.077 82.2C243.077 79.8666 244.968 77.975 247.302 77.975H268.102C268.259 77.975 268.41 78.0376 268.522 78.149L282.553 92.1798C282.664 92.2913 282.727 92.4424 282.727 92.6V123.8C282.727 126.133 280.835 128.025 278.502 128.025H247.302C244.968 128.025 243.077 126.133 243.077 123.8V82.2Z" fill="white" stroke="#BEC5CB" stroke-width="1.95"/>
<path d="M268.102 77.6499V87.3999C268.102 90.2718 270.43 92.5999 273.302 92.5999H283.052" stroke="#BEC5CB" stroke-width="1.95"/>
<rect x="234.25" y="100.2" width="37.8" height="21.2" rx="2.6" fill="#4A87F2"/>
<path d="M242.621 115.8H239.269V106.346H242.648C243.599 106.346 244.418 106.535 245.104 106.914C245.791 107.289 246.318 107.829 246.688 108.534C247.06 109.239 247.246 110.082 247.246 111.064C247.246 112.049 247.06 112.895 246.688 113.603C246.318 114.311 245.787 114.854 245.095 115.232C244.406 115.611 243.581 115.8 242.621 115.8ZM241.268 114.088H242.537C243.128 114.088 243.625 113.983 244.029 113.774C244.435 113.561 244.74 113.234 244.943 112.79C245.149 112.344 245.252 111.769 245.252 111.064C245.252 110.365 245.149 109.794 244.943 109.351C244.74 108.908 244.436 108.582 244.033 108.372C243.63 108.163 243.133 108.058 242.542 108.058H241.268V114.088ZM257.415 111.073C257.415 112.104 257.22 112.981 256.829 113.704C256.441 114.428 255.912 114.98 255.241 115.362C254.573 115.74 253.822 115.93 252.988 115.93C252.148 115.93 251.394 115.739 250.726 115.357C250.058 114.975 249.53 114.423 249.142 113.7C248.755 112.977 248.561 112.101 248.561 111.073C248.561 110.042 248.755 109.165 249.142 108.442C249.53 107.718 250.058 107.167 250.726 106.789C251.394 106.407 252.148 106.216 252.988 106.216C253.822 106.216 254.573 106.407 255.241 106.789C255.912 107.167 256.441 107.718 256.829 108.442C257.22 109.165 257.415 110.042 257.415 111.073ZM255.389 111.073C255.389 110.405 255.289 109.842 255.089 109.383C254.892 108.925 254.613 108.577 254.253 108.34C253.893 108.103 253.471 107.985 252.988 107.985C252.505 107.985 252.083 108.103 251.723 108.34C251.363 108.577 251.083 108.925 250.883 109.383C250.686 109.842 250.587 110.405 250.587 111.073C250.587 111.741 250.686 112.304 250.883 112.763C251.083 113.221 251.363 113.569 251.723 113.806C252.083 114.043 252.505 114.161 252.988 114.161C253.471 114.161 253.893 114.043 254.253 113.806C254.613 113.569 254.892 113.221 255.089 112.763C255.289 112.304 255.389 111.741 255.389 111.073ZM267.238 109.656H265.216C265.179 109.394 265.104 109.162 264.99 108.959C264.876 108.752 264.73 108.577 264.551 108.432C264.373 108.288 264.166 108.177 263.933 108.1C263.702 108.023 263.451 107.985 263.18 107.985C262.691 107.985 262.264 108.106 261.901 108.349C261.538 108.589 261.257 108.94 261.056 109.402C260.856 109.86 260.756 110.417 260.756 111.073C260.756 111.747 260.856 112.313 261.056 112.772C261.26 113.23 261.543 113.577 261.906 113.811C262.269 114.044 262.689 114.161 263.166 114.161C263.434 114.161 263.682 114.126 263.909 114.055C264.14 113.984 264.345 113.881 264.523 113.746C264.702 113.607 264.85 113.44 264.967 113.243C265.087 113.046 265.17 112.821 265.216 112.569L267.238 112.578C267.186 113.012 267.055 113.431 266.846 113.834C266.639 114.234 266.361 114.592 266.01 114.909C265.662 115.223 265.247 115.473 264.763 115.657C264.283 115.839 263.74 115.93 263.134 115.93C262.291 115.93 261.537 115.739 260.872 115.357C260.21 114.975 259.687 114.423 259.302 113.7C258.921 112.977 258.73 112.101 258.73 111.073C258.73 110.042 258.924 109.165 259.311 108.442C259.699 107.718 260.225 107.167 260.89 106.789C261.555 106.407 262.303 106.216 263.134 106.216C263.682 106.216 264.19 106.293 264.657 106.447C265.128 106.601 265.545 106.826 265.908 107.121C266.272 107.414 266.567 107.772 266.795 108.197C267.026 108.622 267.173 109.108 267.238 109.656Z" fill="white"/>
<path d="M96.0767 415.874C95.4728 413.62 96.8103 411.303 99.0642 410.699L119.155 405.316C119.308 405.275 119.47 405.297 119.606 405.375L136.791 415.297C136.927 415.375 137.027 415.505 137.067 415.657L145.143 445.794C145.746 448.048 144.409 450.365 142.155 450.969L112.018 459.044C109.764 459.648 107.448 458.31 106.844 456.056L96.0767 415.874Z" fill="white" stroke="#BEC5CB" stroke-width="1.95"/>
<path d="M119.062 405.002L121.586 414.42C122.329 417.194 125.181 418.84 127.955 418.097L137.372 415.573" stroke="#BEC5CB" stroke-width="1.95"/>
<rect x="92.2578" y="435.532" width="33.8" height="21.2" rx="2.6" transform="rotate(-15 92.2578 435.532)" fill="#CD4842"/>
<path d="M101.087 449.316L98.6397 440.183L102.243 439.218C102.935 439.032 103.561 439.006 104.119 439.14C104.677 439.271 105.146 439.536 105.527 439.934C105.91 440.329 106.182 440.829 106.345 441.435C106.507 442.042 106.52 442.612 106.383 443.146C106.245 443.68 105.963 444.143 105.536 444.534C105.112 444.925 104.549 445.214 103.847 445.402L101.551 446.018L101.136 444.47L103.121 443.939C103.492 443.839 103.781 443.693 103.988 443.501C104.196 443.305 104.33 443.076 104.387 442.816C104.447 442.551 104.437 442.269 104.356 441.968C104.275 441.665 104.143 441.417 103.961 441.224C103.78 441.027 103.552 440.898 103.274 440.839C102.996 440.776 102.67 440.795 102.296 440.896L100.993 441.244L103.018 448.798L101.087 449.316ZM109.217 447.137L106.77 438.005L110.373 437.039C111.066 436.854 111.691 436.828 112.25 436.962C112.807 437.093 113.276 437.357 113.657 437.756C114.04 438.15 114.313 438.651 114.475 439.257C114.638 439.863 114.65 440.434 114.513 440.967C114.376 441.501 114.093 441.964 113.666 442.356C113.242 442.747 112.679 443.036 111.977 443.224L109.681 443.839L109.266 442.292L111.251 441.76C111.622 441.661 111.911 441.515 112.118 441.322C112.327 441.126 112.46 440.898 112.517 440.637C112.577 440.373 112.567 440.09 112.486 439.79C112.405 439.487 112.273 439.238 112.091 439.045C111.911 438.848 111.682 438.72 111.405 438.66C111.127 438.598 110.8 438.617 110.426 438.717L109.124 439.066L111.148 446.62L109.217 447.137ZM114.979 437.511L114.552 435.919L122.053 433.91L122.479 435.502L119.683 436.251L121.704 443.791L119.795 444.303L117.775 436.762L114.979 437.511Z" fill="white"/>
<path d="M372.846 416.63C373.45 414.376 375.767 413.039 378.02 413.643L398.112 419.026C398.264 419.067 398.394 419.166 398.473 419.303L408.394 436.487C408.473 436.624 408.494 436.786 408.453 436.938L400.378 467.075C399.774 469.329 397.457 470.666 395.203 470.062L365.067 461.987C362.813 461.383 361.475 459.067 362.079 456.813L372.846 416.63Z" fill="white" stroke="#BEC5CB" stroke-width="1.95"/>
<path d="M398.188 418.712L395.664 428.13C394.921 430.904 396.567 433.755 399.341 434.498L408.759 437.022" stroke="#BEC5CB" stroke-width="1.95"/>
<rect x="359.656" y="431.939" width="34.8" height="21.2" rx="2.6" transform="rotate(15 359.656 431.939)" fill="#2EC08B"/>
<path d="M362.016 440.64L362.442 439.048L369.943 441.058L369.516 442.65L366.72 441.901L364.7 449.441L362.791 448.93L364.812 441.389L362.016 440.64ZM372.988 441.874L373.996 445.48L374.067 445.499L376.752 442.882L378.932 443.467L374.922 447.286L376.548 452.616L374.327 452.021L373.29 448.402L373.218 448.383L370.51 450.998L368.298 450.405L372.38 446.605L370.799 441.287L372.988 441.874ZM379.38 445.293L379.806 443.701L387.307 445.71L386.88 447.302L384.084 446.553L382.064 454.094L380.155 453.582L382.176 446.042L379.38 445.293Z" fill="white"/>
<g filter="url(#filter0_d_3519_12018)">
<rect x="108" y="175" width="306" height="185.76" rx="10.08" fill="white" shape-rendering="crispEdges"/>
<rect x="107.3" y="174.3" width="307.4" height="187.16" rx="10.78" stroke="#DFE7EB" stroke-width="1.4" shape-rendering="crispEdges"/>
<path d="M135.157 192.71L132.274 202.44H130.468L128.423 195.076L126.253 202.44L124.461 202.454L121.704 192.71H123.397L125.413 200.634L127.598 192.71H129.389L131.42 200.592L133.449 192.71H135.157ZM140.464 194.6C141.052 194.6 141.574 194.726 142.032 194.978C142.498 195.23 142.862 195.603 143.124 196.098C143.394 196.593 143.53 197.19 143.53 197.89V202.44H141.948V198.128C141.948 197.437 141.775 196.91 141.43 196.546C141.084 196.173 140.613 195.986 140.016 195.986C139.418 195.986 138.942 196.173 138.588 196.546C138.242 196.91 138.07 197.437 138.07 198.128V202.44H136.474V192.08H138.07V195.622C138.34 195.295 138.681 195.043 139.092 194.866C139.512 194.689 139.969 194.6 140.464 194.6ZM146.378 193.704C146.088 193.704 145.846 193.606 145.65 193.41C145.454 193.214 145.356 192.971 145.356 192.682C145.356 192.393 145.454 192.15 145.65 191.954C145.846 191.758 146.088 191.66 146.378 191.66C146.658 191.66 146.896 191.758 147.092 191.954C147.288 192.15 147.386 192.393 147.386 192.682C147.386 192.971 147.288 193.214 147.092 193.41C146.896 193.606 146.658 193.704 146.378 193.704ZM147.162 194.726V202.44H145.566V194.726H147.162ZM148.725 198.576C148.725 197.783 148.884 197.087 149.201 196.49C149.528 195.883 149.976 195.417 150.545 195.09C151.114 194.763 151.768 194.6 152.505 194.6C153.438 194.6 154.208 194.824 154.815 195.272C155.431 195.711 155.846 196.341 156.061 197.162H154.339C154.199 196.779 153.975 196.481 153.667 196.266C153.359 196.051 152.972 195.944 152.505 195.944C151.852 195.944 151.329 196.177 150.937 196.644C150.554 197.101 150.363 197.745 150.363 198.576C150.363 199.407 150.554 200.055 150.937 200.522C151.329 200.989 151.852 201.222 152.505 201.222C153.429 201.222 154.04 200.816 154.339 200.004H156.061C155.837 200.788 155.417 201.413 154.801 201.88C154.185 202.337 153.42 202.566 152.505 202.566C151.768 202.566 151.114 202.403 150.545 202.076C149.976 201.74 149.528 201.273 149.201 200.676C148.884 200.069 148.725 199.369 148.725 198.576ZM161.642 194.6C162.23 194.6 162.752 194.726 163.21 194.978C163.676 195.23 164.04 195.603 164.302 196.098C164.572 196.593 164.708 197.19 164.708 197.89V202.44H163.126V198.128C163.126 197.437 162.953 196.91 162.608 196.546C162.262 196.173 161.791 195.986 161.194 195.986C160.596 195.986 160.12 196.173 159.766 196.546C159.42 196.91 159.248 197.437 159.248 198.128V202.44H157.652V192.08H159.248V195.622C159.518 195.295 159.859 195.043 160.27 194.866C160.69 194.689 161.147 194.6 161.642 194.6ZM169.848 198.548C169.848 197.773 170.007 197.087 170.324 196.49C170.651 195.893 171.089 195.431 171.64 195.104C172.2 194.768 172.816 194.6 173.488 194.6C174.095 194.6 174.622 194.721 175.07 194.964C175.527 195.197 175.891 195.491 176.162 195.846V194.726H177.772V202.44H176.162V201.292C175.891 201.656 175.523 201.959 175.056 202.202C174.589 202.445 174.057 202.566 173.46 202.566C172.797 202.566 172.191 202.398 171.64 202.062C171.089 201.717 170.651 201.241 170.324 200.634C170.007 200.018 169.848 199.323 169.848 198.548ZM176.162 198.576C176.162 198.044 176.05 197.582 175.826 197.19C175.611 196.798 175.327 196.499 174.972 196.294C174.617 196.089 174.235 195.986 173.824 195.986C173.413 195.986 173.031 196.089 172.676 196.294C172.321 196.49 172.032 196.784 171.808 197.176C171.593 197.559 171.486 198.016 171.486 198.548C171.486 199.08 171.593 199.547 171.808 199.948C172.032 200.349 172.321 200.657 172.676 200.872C173.04 201.077 173.423 201.18 173.824 201.18C174.235 201.18 174.617 201.077 174.972 200.872C175.327 200.667 175.611 200.368 175.826 199.976C176.05 199.575 176.162 199.108 176.162 198.576ZM183.76 194.6C184.367 194.6 184.908 194.726 185.384 194.978C185.87 195.23 186.248 195.603 186.518 196.098C186.789 196.593 186.924 197.19 186.924 197.89V202.44H185.342V198.128C185.342 197.437 185.17 196.91 184.824 196.546C184.479 196.173 184.008 195.986 183.41 195.986C182.813 195.986 182.337 196.173 181.982 196.546C181.637 196.91 181.464 197.437 181.464 198.128V202.44H179.868V194.726H181.464V195.608C181.726 195.291 182.057 195.043 182.458 194.866C182.869 194.689 183.303 194.6 183.76 194.6ZM188.428 198.576C188.428 197.783 188.587 197.087 188.904 196.49C189.231 195.883 189.679 195.417 190.248 195.09C190.817 194.763 191.471 194.6 192.208 194.6C193.141 194.6 193.911 194.824 194.518 195.272C195.134 195.711 195.549 196.341 195.764 197.162H194.042C193.902 196.779 193.678 196.481 193.37 196.266C193.062 196.051 192.675 195.944 192.208 195.944C191.555 195.944 191.032 196.177 190.64 196.644C190.257 197.101 190.066 197.745 190.066 198.576C190.066 199.407 190.257 200.055 190.64 200.522C191.032 200.989 191.555 201.222 192.208 201.222C193.132 201.222 193.743 200.816 194.042 200.004H195.764C195.54 200.788 195.12 201.413 194.504 201.88C193.888 202.337 193.123 202.566 192.208 202.566C191.471 202.566 190.817 202.403 190.248 202.076C189.679 201.74 189.231 201.273 188.904 200.676C188.587 200.069 188.428 199.369 188.428 198.576ZM198.167 193.704C197.877 193.704 197.635 193.606 197.439 193.41C197.243 193.214 197.145 192.971 197.145 192.682C197.145 192.393 197.243 192.15 197.439 191.954C197.635 191.758 197.877 191.66 198.167 191.66C198.447 191.66 198.685 191.758 198.881 191.954C199.077 192.15 199.175 192.393 199.175 192.682C199.175 192.971 199.077 193.214 198.881 193.41C198.685 193.606 198.447 193.704 198.167 193.704ZM198.951 194.726V202.44H197.355V194.726H198.951ZM208.116 198.394C208.116 198.683 208.097 198.945 208.06 199.178H202.166C202.213 199.794 202.441 200.289 202.852 200.662C203.263 201.035 203.767 201.222 204.364 201.222C205.223 201.222 205.829 200.863 206.184 200.144H207.906C207.673 200.853 207.248 201.437 206.632 201.894C206.025 202.342 205.269 202.566 204.364 202.566C203.627 202.566 202.964 202.403 202.376 202.076C201.797 201.74 201.34 201.273 201.004 200.676C200.677 200.069 200.514 199.369 200.514 198.576C200.514 197.783 200.673 197.087 200.99 196.49C201.317 195.883 201.769 195.417 202.348 195.09C202.936 194.763 203.608 194.6 204.364 194.6C205.092 194.6 205.741 194.759 206.31 195.076C206.879 195.393 207.323 195.841 207.64 196.42C207.957 196.989 208.116 197.647 208.116 198.394ZM206.45 197.89C206.441 197.302 206.231 196.831 205.82 196.476C205.409 196.121 204.901 195.944 204.294 195.944C203.743 195.944 203.272 196.121 202.88 196.476C202.488 196.821 202.255 197.293 202.18 197.89H206.45ZM213.579 194.6C214.185 194.6 214.727 194.726 215.203 194.978C215.688 195.23 216.066 195.603 216.337 196.098C216.607 196.593 216.743 197.19 216.743 197.89V202.44H215.161V198.128C215.161 197.437 214.988 196.91 214.643 196.546C214.297 196.173 213.826 195.986 213.229 195.986C212.631 195.986 212.155 196.173 211.801 196.546C211.455 196.91 211.283 197.437 211.283 198.128V202.44H209.687V194.726H211.283V195.608C211.544 195.291 211.875 195.043 212.277 194.866C212.687 194.689 213.121 194.6 213.579 194.6ZM220.641 196.028V200.298C220.641 200.587 220.706 200.797 220.837 200.928C220.977 201.049 221.21 201.11 221.537 201.11H222.517V202.44H221.257C220.538 202.44 219.987 202.272 219.605 201.936C219.222 201.6 219.031 201.054 219.031 200.298V196.028H218.121V194.726H219.031V192.808H220.641V194.726H222.517V196.028H220.641ZM227.092 198.576C227.092 197.783 227.251 197.087 227.568 196.49C227.895 195.883 228.343 195.417 228.912 195.09C229.482 194.763 230.135 194.6 230.872 194.6C231.806 194.6 232.576 194.824 233.182 195.272C233.798 195.711 234.214 196.341 234.428 197.162H232.706C232.566 196.779 232.342 196.481 232.034 196.266C231.726 196.051 231.339 195.944 230.872 195.944C230.219 195.944 229.696 196.177 229.304 196.644C228.922 197.101 228.73 197.745 228.73 198.576C228.73 199.407 228.922 200.055 229.304 200.522C229.696 200.989 230.219 201.222 230.872 201.222C231.796 201.222 232.408 200.816 232.706 200.004H234.428C234.204 200.788 233.784 201.413 233.168 201.88C232.552 202.337 231.787 202.566 230.872 202.566C230.135 202.566 229.482 202.403 228.912 202.076C228.343 201.74 227.895 201.273 227.568 200.676C227.251 200.069 227.092 199.369 227.092 198.576ZM236.831 193.704C236.541 193.704 236.299 193.606 236.103 193.41C235.907 193.214 235.809 192.971 235.809 192.682C235.809 192.393 235.907 192.15 236.103 191.954C236.299 191.758 236.541 191.66 236.831 191.66C237.111 191.66 237.349 191.758 237.545 191.954C237.741 192.15 237.839 192.393 237.839 192.682C237.839 192.971 237.741 193.214 237.545 193.41C237.349 193.606 237.111 193.704 236.831 193.704ZM237.615 194.726V202.44H236.019V194.726H237.615ZM242.692 201.012L244.876 194.726H246.57L243.63 202.44H241.726L238.8 194.726H240.508L242.692 201.012ZM248.589 193.704C248.299 193.704 248.057 193.606 247.861 193.41C247.665 193.214 247.567 192.971 247.567 192.682C247.567 192.393 247.665 192.15 247.861 191.954C248.057 191.758 248.299 191.66 248.589 191.66C248.869 191.66 249.107 191.758 249.303 191.954C249.499 192.15 249.597 192.393 249.597 192.682C249.597 192.971 249.499 193.214 249.303 193.41C249.107 193.606 248.869 193.704 248.589 193.704ZM249.373 194.726V202.44H247.777V194.726H249.373ZM253.064 192.08V202.44H251.468V192.08H253.064ZM255.971 193.704C255.682 193.704 255.439 193.606 255.243 193.41C255.047 193.214 254.949 192.971 254.949 192.682C254.949 192.393 255.047 192.15 255.243 191.954C255.439 191.758 255.682 191.66 255.971 191.66C256.251 191.66 256.489 191.758 256.685 191.954C256.881 192.15 256.979 192.393 256.979 192.682C256.979 192.971 256.881 193.214 256.685 193.41C256.489 193.606 256.251 193.704 255.971 193.704ZM256.755 194.726V202.44H255.159V194.726H256.755ZM260.265 201.138H263.765V202.44H258.417V201.138L261.931 196.028H258.417V194.726H263.765V196.028L260.265 201.138ZM264.909 198.548C264.909 197.773 265.067 197.087 265.385 196.49C265.711 195.893 266.15 195.431 266.701 195.104C267.261 194.768 267.877 194.6 268.549 194.6C269.155 194.6 269.683 194.721 270.131 194.964C270.588 195.197 270.952 195.491 271.223 195.846V194.726H272.833V202.44H271.223V201.292C270.952 201.656 270.583 201.959 270.117 202.202C269.65 202.445 269.118 202.566 268.521 202.566C267.858 202.566 267.251 202.398 266.701 202.062C266.15 201.717 265.711 201.241 265.385 200.634C265.067 200.018 264.909 199.323 264.909 198.548ZM271.223 198.576C271.223 198.044 271.111 197.582 270.887 197.19C270.672 196.798 270.387 196.499 270.033 196.294C269.678 196.089 269.295 195.986 268.885 195.986C268.474 195.986 268.091 196.089 267.737 196.294C267.382 196.49 267.093 196.784 266.869 197.176C266.654 197.559 266.547 198.016 266.547 198.548C266.547 199.08 266.654 199.547 266.869 199.948C267.093 200.349 267.382 200.657 267.737 200.872C268.101 201.077 268.483 201.18 268.885 201.18C269.295 201.18 269.678 201.077 270.033 200.872C270.387 200.667 270.672 200.368 270.887 199.976C271.111 199.575 271.223 199.108 271.223 198.576ZM276.791 196.028V200.298C276.791 200.587 276.856 200.797 276.987 200.928C277.127 201.049 277.36 201.11 277.687 201.11H278.667V202.44H277.407C276.688 202.44 276.138 202.272 275.755 201.936C275.372 201.6 275.181 201.054 275.181 200.298V196.028H274.271V194.726H275.181V192.808H276.791V194.726H278.667V196.028H276.791ZM280.95 193.704C280.661 193.704 280.418 193.606 280.222 193.41C280.026 193.214 279.928 192.971 279.928 192.682C279.928 192.393 280.026 192.15 280.222 191.954C280.418 191.758 280.661 191.66 280.95 191.66C281.23 191.66 281.468 191.758 281.664 191.954C281.86 192.15 281.958 192.393 281.958 192.682C281.958 192.971 281.86 193.214 281.664 193.41C281.468 193.606 281.23 193.704 280.95 193.704ZM281.734 194.726V202.44H280.138V194.726H281.734ZM287.175 202.566C286.447 202.566 285.789 202.403 285.201 202.076C284.613 201.74 284.151 201.273 283.815 200.676C283.479 200.069 283.311 199.369 283.311 198.576C283.311 197.792 283.484 197.097 283.829 196.49C284.175 195.883 284.646 195.417 285.243 195.09C285.841 194.763 286.508 194.6 287.245 194.6C287.983 194.6 288.65 194.763 289.247 195.09C289.845 195.417 290.316 195.883 290.661 196.49C291.007 197.097 291.179 197.792 291.179 198.576C291.179 199.36 291.002 200.055 290.647 200.662C290.293 201.269 289.807 201.74 289.191 202.076C288.585 202.403 287.913 202.566 287.175 202.566ZM287.175 201.18C287.586 201.18 287.969 201.082 288.323 200.886C288.687 200.69 288.981 200.396 289.205 200.004C289.429 199.612 289.541 199.136 289.541 198.576C289.541 198.016 289.434 197.545 289.219 197.162C289.005 196.77 288.72 196.476 288.365 196.28C288.011 196.084 287.628 195.986 287.217 195.986C286.807 195.986 286.424 196.084 286.069 196.28C285.724 196.476 285.449 196.77 285.243 197.162C285.038 197.545 284.935 198.016 284.935 198.576C284.935 199.407 285.145 200.051 285.565 200.508C285.995 200.956 286.531 201.18 287.175 201.18ZM296.649 194.6C297.256 194.6 297.797 194.726 298.273 194.978C298.758 195.23 299.136 195.603 299.407 196.098C299.678 196.593 299.813 197.19 299.813 197.89V202.44H298.231V198.128C298.231 197.437 298.058 196.91 297.713 196.546C297.368 196.173 296.896 195.986 296.299 195.986C295.702 195.986 295.226 196.173 294.871 196.546C294.526 196.91 294.353 197.437 294.353 198.128V202.44H292.757V194.726H294.353V195.608C294.614 195.291 294.946 195.043 295.347 194.866C295.758 194.689 296.192 194.6 296.649 194.6ZM307.082 195.874C307.352 195.501 307.721 195.197 308.188 194.964C308.664 194.721 309.191 194.6 309.77 194.6C310.451 194.6 311.067 194.763 311.618 195.09C312.168 195.417 312.602 195.883 312.92 196.49C313.237 197.087 313.396 197.773 313.396 198.548C313.396 199.323 313.237 200.018 312.92 200.634C312.602 201.241 312.164 201.717 311.604 202.062C311.053 202.398 310.442 202.566 309.77 202.566C309.172 202.566 308.64 202.449 308.174 202.216C307.716 201.983 307.352 201.684 307.082 201.32V202.44H305.486V192.08H307.082V195.874ZM311.772 198.548C311.772 198.016 311.66 197.559 311.436 197.176C311.221 196.784 310.932 196.49 310.568 196.294C310.213 196.089 309.83 195.986 309.42 195.986C309.018 195.986 308.636 196.089 308.272 196.294C307.917 196.499 307.628 196.798 307.404 197.19C307.189 197.582 307.082 198.044 307.082 198.576C307.082 199.108 307.189 199.575 307.404 199.976C307.628 200.368 307.917 200.667 308.272 200.872C308.636 201.077 309.018 201.18 309.42 201.18C309.83 201.18 310.213 201.077 310.568 200.872C310.932 200.657 311.221 200.349 311.436 199.948C311.66 199.547 311.772 199.08 311.772 198.548ZM321.96 194.726V202.44H320.364V201.53C320.112 201.847 319.78 202.099 319.37 202.286C318.968 202.463 318.539 202.552 318.082 202.552C317.475 202.552 316.929 202.426 316.444 202.174C315.968 201.922 315.59 201.549 315.31 201.054C315.039 200.559 314.904 199.962 314.904 199.262V194.726H316.486V199.024C316.486 199.715 316.658 200.247 317.004 200.62C317.349 200.984 317.82 201.166 318.418 201.166C319.015 201.166 319.486 200.984 319.832 200.62C320.186 200.247 320.364 199.715 320.364 199.024V194.726H321.96ZM324.878 193.704C324.588 193.704 324.346 193.606 324.15 193.41C323.954 193.214 323.856 192.971 323.856 192.682C323.856 192.393 323.954 192.15 324.15 191.954C324.346 191.758 324.588 191.66 324.878 191.66C325.158 191.66 325.396 191.758 325.592 191.954C325.788 192.15 325.886 192.393 325.886 192.682C325.886 192.971 325.788 193.214 325.592 193.41C325.396 193.606 325.158 193.704 324.878 193.704ZM325.662 194.726V202.44H324.066V194.726H325.662ZM329.353 192.08V202.44H327.757V192.08H329.353ZM333.31 196.028V200.298C333.31 200.587 333.376 200.797 333.506 200.928C333.646 201.049 333.88 201.11 334.206 201.11H335.186V202.44H333.926C333.208 202.44 332.657 202.272 332.274 201.936C331.892 201.6 331.7 201.054 331.7 200.298V196.028H330.79V194.726H331.7V192.808H333.31V194.726H335.186V196.028H333.31ZM342.156 196.028V200.298C342.156 200.587 342.221 200.797 342.352 200.928C342.492 201.049 342.725 201.11 343.052 201.11H344.032V202.44H342.772C342.053 202.44 341.503 202.272 341.12 201.936C340.737 201.6 340.546 201.054 340.546 200.298V196.028H339.636V194.726H340.546V192.808H342.156V194.726H344.032V196.028H342.156ZM349.493 194.6C350.081 194.6 350.604 194.726 351.061 194.978C351.528 195.23 351.892 195.603 352.153 196.098C352.424 196.593 352.559 197.19 352.559 197.89V202.44H350.977V198.128C350.977 197.437 350.804 196.91 350.459 196.546C350.114 196.173 349.642 195.986 349.045 195.986C348.448 195.986 347.972 196.173 347.617 196.546C347.272 196.91 347.099 197.437 347.099 198.128V202.44H345.503V192.08H347.099V195.622C347.37 195.295 347.71 195.043 348.121 194.866C348.541 194.689 348.998 194.6 349.493 194.6ZM361.665 198.394C361.665 198.683 361.646 198.945 361.609 199.178H355.715C355.762 199.794 355.99 200.289 356.401 200.662C356.812 201.035 357.316 201.222 357.913 201.222C358.772 201.222 359.378 200.863 359.733 200.144H361.455C361.222 200.853 360.797 201.437 360.181 201.894C359.574 202.342 358.818 202.566 357.913 202.566C357.176 202.566 356.513 202.403 355.925 202.076C355.346 201.74 354.889 201.273 354.553 200.676C354.226 200.069 354.063 199.369 354.063 198.576C354.063 197.783 354.222 197.087 354.539 196.49C354.866 195.883 355.318 195.417 355.897 195.09C356.485 194.763 357.157 194.6 357.913 194.6C358.641 194.6 359.29 194.759 359.859 195.076C360.428 195.393 360.872 195.841 361.189 196.42C361.506 196.989 361.665 197.647 361.665 198.394ZM359.999 197.89C359.99 197.302 359.78 196.831 359.369 196.476C358.958 196.121 358.45 195.944 357.843 195.944C357.292 195.944 356.821 196.121 356.429 196.476C356.037 196.821 355.804 197.293 355.729 197.89H359.999ZM129.529 213.51C129.277 213.025 128.927 212.661 128.479 212.418C128.031 212.166 127.513 212.04 126.925 212.04C126.281 212.04 125.707 212.185 125.204 212.474C124.699 212.763 124.303 213.174 124.014 213.706C123.734 214.238 123.594 214.854 123.594 215.554C123.594 216.254 123.734 216.875 124.014 217.416C124.303 217.948 124.699 218.359 125.204 218.648C125.707 218.937 126.281 219.082 126.925 219.082C127.793 219.082 128.498 218.839 129.04 218.354C129.581 217.869 129.912 217.211 130.033 216.38H126.379V215.106H131.742V216.352C131.639 217.108 131.368 217.803 130.929 218.438C130.5 219.073 129.935 219.581 129.236 219.964C128.545 220.337 127.775 220.524 126.925 220.524C126.011 220.524 125.175 220.314 124.42 219.894C123.663 219.465 123.061 218.872 122.614 218.116C122.175 217.36 121.955 216.506 121.955 215.554C121.955 214.602 122.175 213.748 122.614 212.992C123.061 212.236 123.663 211.648 124.42 211.228C125.185 210.799 126.02 210.584 126.925 210.584C127.961 210.584 128.881 210.841 129.684 211.354C130.496 211.858 131.084 212.577 131.447 213.51H129.529ZM134.912 213.846C135.145 213.454 135.453 213.151 135.836 212.936C136.228 212.712 136.69 212.6 137.222 212.6V214.252H136.816C136.19 214.252 135.714 214.411 135.388 214.728C135.07 215.045 134.912 215.596 134.912 216.38V220.44H133.316V212.726H134.912V213.846ZM145.759 216.394C145.759 216.683 145.74 216.945 145.703 217.178H139.809C139.855 217.794 140.084 218.289 140.495 218.662C140.905 219.035 141.409 219.222 142.007 219.222C142.865 219.222 143.472 218.863 143.827 218.144H145.549C145.315 218.853 144.891 219.437 144.275 219.894C143.668 220.342 142.912 220.566 142.007 220.566C141.269 220.566 140.607 220.403 140.019 220.076C139.44 219.74 138.983 219.273 138.647 218.676C138.32 218.069 138.157 217.369 138.157 216.576C138.157 215.783 138.315 215.087 138.633 214.49C138.959 213.883 139.412 213.417 139.991 213.09C140.579 212.763 141.251 212.6 142.007 212.6C142.735 212.6 143.383 212.759 143.953 213.076C144.522 213.393 144.965 213.841 145.283 214.42C145.6 214.989 145.759 215.647 145.759 216.394ZM144.093 215.89C144.083 215.302 143.873 214.831 143.463 214.476C143.052 214.121 142.543 213.944 141.937 213.944C141.386 213.944 140.915 214.121 140.523 214.476C140.131 214.821 139.897 215.293 139.823 215.89H144.093ZM146.797 216.548C146.797 215.773 146.956 215.087 147.273 214.49C147.6 213.893 148.039 213.431 148.589 213.104C149.149 212.768 149.765 212.6 150.437 212.6C151.044 212.6 151.571 212.721 152.019 212.964C152.477 213.197 152.841 213.491 153.111 213.846V212.726H154.721V220.44H153.111V219.292C152.841 219.656 152.472 219.959 152.005 220.202C151.539 220.445 151.007 220.566 150.409 220.566C149.747 220.566 149.14 220.398 148.589 220.062C148.039 219.717 147.6 219.241 147.273 218.634C146.956 218.018 146.797 217.323 146.797 216.548ZM153.111 216.576C153.111 216.044 152.999 215.582 152.775 215.19C152.561 214.798 152.276 214.499 151.921 214.294C151.567 214.089 151.184 213.986 150.773 213.986C150.363 213.986 149.98 214.089 149.625 214.294C149.271 214.49 148.981 214.784 148.757 215.176C148.543 215.559 148.435 216.016 148.435 216.548C148.435 217.08 148.543 217.547 148.757 217.948C148.981 218.349 149.271 218.657 149.625 218.872C149.989 219.077 150.372 219.18 150.773 219.18C151.184 219.18 151.567 219.077 151.921 218.872C152.276 218.667 152.561 218.368 152.775 217.976C152.999 217.575 153.111 217.108 153.111 216.576ZM158.68 214.028V218.298C158.68 218.587 158.745 218.797 158.876 218.928C159.016 219.049 159.249 219.11 159.576 219.11H160.556V220.44H159.296C158.577 220.44 158.026 220.272 157.644 219.936C157.261 219.6 157.07 219.054 157.07 218.298V214.028H156.16V212.726H157.07V210.808H158.68V212.726H160.556V214.028H158.68ZM172.467 213.608C172.467 214.103 172.351 214.569 172.117 215.008C171.884 215.447 171.511 215.806 170.997 216.086C170.484 216.357 169.826 216.492 169.023 216.492H167.259V220.44H165.663V210.71H169.023C169.77 210.71 170.4 210.841 170.913 211.102C171.436 211.354 171.823 211.699 172.075 212.138C172.337 212.577 172.467 213.067 172.467 213.608ZM169.023 215.19C169.63 215.19 170.083 215.055 170.381 214.784C170.68 214.504 170.829 214.112 170.829 213.608C170.829 212.544 170.227 212.012 169.023 212.012H167.259V215.19H169.023ZM180.933 212.726L176.201 224.066H174.549L176.117 220.314L173.079 212.726H174.857L177.027 218.606L179.281 212.726H180.933ZM183.734 213.846C183.967 213.454 184.275 213.151 184.658 212.936C185.05 212.712 185.512 212.6 186.044 212.6V214.252H185.638C185.013 214.252 184.537 214.411 184.21 214.728C183.893 215.045 183.734 215.596 183.734 216.38V220.44H182.138V212.726H183.734V213.846ZM186.979 216.548C186.979 215.773 187.138 215.087 187.455 214.49C187.782 213.893 188.22 213.431 188.771 213.104C189.331 212.768 189.947 212.6 190.619 212.6C191.226 212.6 191.753 212.721 192.201 212.964C192.658 213.197 193.022 213.491 193.293 213.846V212.726H194.903V220.44H193.293V219.292C193.022 219.656 192.654 219.959 192.187 220.202C191.72 220.445 191.188 220.566 190.591 220.566C189.928 220.566 189.322 220.398 188.771 220.062C188.22 219.717 187.782 219.241 187.455 218.634C187.138 218.018 186.979 217.323 186.979 216.548ZM193.293 216.576C193.293 216.044 193.181 215.582 192.957 215.19C192.742 214.798 192.458 214.499 192.103 214.294C191.748 214.089 191.366 213.986 190.955 213.986C190.544 213.986 190.162 214.089 189.807 214.294C189.452 214.49 189.163 214.784 188.939 215.176C188.724 215.559 188.617 216.016 188.617 216.548C188.617 217.08 188.724 217.547 188.939 217.948C189.163 218.349 189.452 218.657 189.807 218.872C190.171 219.077 190.554 219.18 190.955 219.18C191.366 219.18 191.748 219.077 192.103 218.872C192.458 218.667 192.742 218.368 192.957 217.976C193.181 217.575 193.293 217.108 193.293 216.576ZM206.337 212.6C206.944 212.6 207.485 212.726 207.961 212.978C208.447 213.23 208.825 213.603 209.095 214.098C209.375 214.593 209.515 215.19 209.515 215.89V220.44H207.933V216.128C207.933 215.437 207.761 214.91 207.415 214.546C207.07 214.173 206.599 213.986 206.001 213.986C205.404 213.986 204.928 214.173 204.573 214.546C204.228 214.91 204.055 215.437 204.055 216.128V220.44H202.473V216.128C202.473 215.437 202.301 214.91 201.955 214.546C201.61 214.173 201.139 213.986 200.541 213.986C199.944 213.986 199.468 214.173 199.113 214.546C198.768 214.91 198.595 215.437 198.595 216.128V220.44H196.999V212.726H198.595V213.608C198.857 213.291 199.188 213.043 199.589 212.866C199.991 212.689 200.42 212.6 200.877 212.6C201.493 212.6 202.044 212.731 202.529 212.992C203.015 213.253 203.388 213.631 203.649 214.126C203.883 213.659 204.247 213.291 204.741 213.02C205.236 212.74 205.768 212.6 206.337 212.6ZM212.358 211.704C212.069 211.704 211.826 211.606 211.63 211.41C211.434 211.214 211.336 210.971 211.336 210.682C211.336 210.393 211.434 210.15 211.63 209.954C211.826 209.758 212.069 209.66 212.358 209.66C212.638 209.66 212.876 209.758 213.072 209.954C213.268 210.15 213.366 210.393 213.366 210.682C213.366 210.971 213.268 211.214 213.072 211.41C212.876 211.606 212.638 211.704 212.358 211.704ZM213.142 212.726V220.44H211.546V212.726H213.142ZM214.705 216.548C214.705 215.773 214.864 215.087 215.181 214.49C215.508 213.893 215.947 213.431 216.497 213.104C217.057 212.768 217.678 212.6 218.359 212.6C218.863 212.6 219.358 212.712 219.843 212.936C220.338 213.151 220.73 213.44 221.019 213.804V210.08H222.629V220.44H221.019V219.278C220.758 219.651 220.394 219.959 219.927 220.202C219.47 220.445 218.943 220.566 218.345 220.566C217.673 220.566 217.057 220.398 216.497 220.062C215.947 219.717 215.508 219.241 215.181 218.634C214.864 218.018 214.705 217.323 214.705 216.548ZM221.019 216.576C221.019 216.044 220.907 215.582 220.683 215.19C220.469 214.798 220.184 214.499 219.829 214.294C219.475 214.089 219.092 213.986 218.681 213.986C218.271 213.986 217.888 214.089 217.533 214.294C217.179 214.49 216.889 214.784 216.665 215.176C216.451 215.559 216.343 216.016 216.343 216.548C216.343 217.08 216.451 217.547 216.665 217.948C216.889 218.349 217.179 218.657 217.533 218.872C217.897 219.077 218.28 219.18 218.681 219.18C219.092 219.18 219.475 219.077 219.829 218.872C220.184 218.667 220.469 218.368 220.683 217.976C220.907 217.575 221.019 217.108 221.019 216.576ZM231.708 220.566C230.98 220.566 230.322 220.403 229.734 220.076C229.146 219.74 228.684 219.273 228.348 218.676C228.012 218.069 227.844 217.369 227.844 216.576C227.844 215.792 228.017 215.097 228.362 214.49C228.708 213.883 229.179 213.417 229.776 213.09C230.374 212.763 231.041 212.6 231.778 212.6C232.516 212.6 233.183 212.763 233.78 213.09C234.378 213.417 234.849 213.883 235.194 214.49C235.54 215.097 235.712 215.792 235.712 216.576C235.712 217.36 235.535 218.055 235.18 218.662C234.826 219.269 234.34 219.74 233.724 220.076C233.118 220.403 232.446 220.566 231.708 220.566ZM231.708 219.18C232.119 219.18 232.502 219.082 232.856 218.886C233.22 218.69 233.514 218.396 233.738 218.004C233.962 217.612 234.074 217.136 234.074 216.576C234.074 216.016 233.967 215.545 233.752 215.162C233.538 214.77 233.253 214.476 232.898 214.28C232.544 214.084 232.161 213.986 231.75 213.986C231.34 213.986 230.957 214.084 230.602 214.28C230.257 214.476 229.982 214.77 229.776 215.162C229.571 215.545 229.468 216.016 229.468 216.576C229.468 217.407 229.678 218.051 230.098 218.508C230.528 218.956 231.064 219.18 231.708 219.18ZM240.524 214.028H239.096V220.44H237.486V214.028H236.576V212.726H237.486V212.18C237.486 211.293 237.72 210.649 238.186 210.248C238.662 209.837 239.404 209.632 240.412 209.632V210.962C239.927 210.962 239.586 211.055 239.39 211.242C239.194 211.419 239.096 211.732 239.096 212.18V212.726H240.524V214.028ZM252.617 213.51C252.365 213.025 252.015 212.661 251.567 212.418C251.119 212.166 250.601 212.04 250.013 212.04C249.369 212.04 248.795 212.185 248.291 212.474C247.787 212.763 247.391 213.174 247.101 213.706C246.821 214.238 246.681 214.854 246.681 215.554C246.681 216.254 246.821 216.875 247.101 217.416C247.391 217.948 247.787 218.359 248.291 218.648C248.795 218.937 249.369 219.082 250.013 219.082C250.881 219.082 251.586 218.839 252.127 218.354C252.669 217.869 253 217.211 253.121 216.38H249.467V215.106H254.829V216.352C254.727 217.108 254.456 217.803 254.017 218.438C253.588 219.073 253.023 219.581 252.323 219.964C251.633 220.337 250.863 220.524 250.013 220.524C249.099 220.524 248.263 220.314 247.507 219.894C246.751 219.465 246.149 218.872 245.701 218.116C245.263 217.36 245.043 216.506 245.043 215.554C245.043 214.602 245.263 213.748 245.701 212.992C246.149 212.236 246.751 211.648 247.507 211.228C248.273 210.799 249.108 210.584 250.013 210.584C251.049 210.584 251.969 210.841 252.771 211.354C253.583 211.858 254.171 212.577 254.535 213.51H252.617ZM257.216 211.704C256.926 211.704 256.684 211.606 256.488 211.41C256.292 211.214 256.194 210.971 256.194 210.682C256.194 210.393 256.292 210.15 256.488 209.954C256.684 209.758 256.926 209.66 257.216 209.66C257.496 209.66 257.734 209.758 257.93 209.954C258.126 210.15 258.224 210.393 258.224 210.682C258.224 210.971 258.126 211.214 257.93 211.41C257.734 211.606 257.496 211.704 257.216 211.704ZM258 212.726V220.44H256.404V212.726H258ZM261.509 219.138H265.009V220.44H259.661V219.138L263.175 214.028H259.661V212.726H265.009V214.028L261.509 219.138ZM266.153 216.548C266.153 215.773 266.311 215.087 266.629 214.49C266.955 213.893 267.394 213.431 267.945 213.104C268.505 212.768 269.121 212.6 269.793 212.6C270.399 212.6 270.927 212.721 271.375 212.964C271.832 213.197 272.196 213.491 272.467 213.846V212.726H274.077V220.44H272.467V219.292C272.196 219.656 271.827 219.959 271.361 220.202C270.894 220.445 270.362 220.566 269.765 220.566C269.102 220.566 268.495 220.398 267.945 220.062C267.394 219.717 266.955 219.241 266.629 218.634C266.311 218.018 266.153 217.323 266.153 216.548ZM272.467 216.576C272.467 216.044 272.355 215.582 272.131 215.19C271.916 214.798 271.631 214.499 271.277 214.294C270.922 214.089 270.539 213.986 270.129 213.986C269.718 213.986 269.335 214.089 268.981 214.294C268.626 214.49 268.337 214.784 268.113 215.176C267.898 215.559 267.791 216.016 267.791 216.548C267.791 217.08 267.898 217.547 268.113 217.948C268.337 218.349 268.626 218.657 268.981 218.872C269.345 219.077 269.727 219.18 270.129 219.18C270.539 219.18 270.922 219.077 271.277 218.872C271.631 218.667 271.916 218.368 272.131 217.976C272.355 217.575 272.467 217.108 272.467 216.576ZM278.791 210.57C279.743 210.57 280.504 210.831 281.073 211.354C281.652 211.877 281.941 212.591 281.941 213.496C281.941 214.439 281.642 215.148 281.045 215.624C280.448 216.1 279.654 216.338 278.665 216.338L278.609 217.444H277.223L277.153 215.246H277.615C278.52 215.246 279.211 215.125 279.687 214.882C280.172 214.639 280.415 214.177 280.415 213.496C280.415 213.001 280.27 212.614 279.981 212.334C279.701 212.054 279.309 211.914 278.805 211.914C278.301 211.914 277.904 212.049 277.615 212.32C277.326 212.591 277.181 212.969 277.181 213.454H275.683C275.683 212.894 275.809 212.395 276.061 211.956C276.313 211.517 276.672 211.177 277.139 210.934C277.615 210.691 278.166 210.57 278.791 210.57ZM277.895 220.538C277.606 220.538 277.363 220.44 277.167 220.244C276.971 220.048 276.873 219.805 276.873 219.516C276.873 219.227 276.971 218.984 277.167 218.788C277.363 218.592 277.606 218.494 277.895 218.494C278.175 218.494 278.413 218.592 278.609 218.788C278.805 218.984 278.903 219.227 278.903 219.516C278.903 219.805 278.805 220.048 278.609 220.244C278.413 220.44 278.175 220.538 277.895 220.538Z" fill="#3C315B"/>
<rect x="121.438" y="241.24" width="279.12" height="31.44" rx="6.72" fill="#F7F8FA"/>
<path d="M135.764 259.256H132.272L131.672 260.96H130.244L133.232 252.608H134.816L137.804 260.96H136.364L135.764 259.256ZM135.38 258.14L134.024 254.264L132.656 258.14H135.38ZM142.439 254.24C142.959 254.24 143.423 254.348 143.831 254.564C144.247 254.78 144.571 255.1 144.803 255.524C145.035 255.948 145.151 256.46 145.151 257.06V260.96H143.795V257.264C143.795 256.672 143.647 256.22 143.351 255.908C143.055 255.588 142.651 255.428 142.139 255.428C141.627 255.428 141.219 255.588 140.915 255.908C140.619 256.22 140.471 256.672 140.471 257.264V260.96H139.103V254.348H140.471V255.104C140.695 254.832 140.979 254.62 141.323 254.468C141.675 254.316 142.047 254.24 142.439 254.24ZM146.44 257.648C146.44 256.968 146.576 256.372 146.848 255.86C147.128 255.34 147.512 254.94 148 254.66C148.488 254.38 149.048 254.24 149.68 254.24C150.48 254.24 151.14 254.432 151.66 254.816C152.188 255.192 152.544 255.732 152.728 256.436H151.252C151.132 256.108 150.94 255.852 150.676 255.668C150.412 255.484 150.08 255.392 149.68 255.392C149.12 255.392 148.672 255.592 148.336 255.992C148.008 256.384 147.844 256.936 147.844 257.648C147.844 258.36 148.008 258.916 148.336 259.316C148.672 259.716 149.12 259.916 149.68 259.916C150.472 259.916 150.996 259.568 151.252 258.872H152.728C152.536 259.544 152.176 260.08 151.648 260.48C151.12 260.872 150.464 261.068 149.68 261.068C149.048 261.068 148.488 260.928 148 260.648C147.512 260.36 147.128 259.96 146.848 259.448C146.576 258.928 146.44 258.328 146.44 257.648ZM154.787 253.472C154.539 253.472 154.331 253.388 154.163 253.22C153.995 253.052 153.911 252.844 153.911 252.596C153.911 252.348 153.995 252.14 154.163 251.972C154.331 251.804 154.539 251.72 154.787 251.72C155.027 251.72 155.231 251.804 155.399 251.972C155.567 252.14 155.651 252.348 155.651 252.596C155.651 252.844 155.567 253.052 155.399 253.22C155.231 253.388 155.027 253.472 154.787 253.472ZM155.459 254.348V260.96H154.091V254.348H155.459ZM163.315 257.492C163.315 257.74 163.299 257.964 163.267 258.164H158.215C158.255 258.692 158.451 259.116 158.803 259.436C159.155 259.756 159.587 259.916 160.099 259.916C160.835 259.916 161.355 259.608 161.659 258.992H163.135C162.935 259.6 162.571 260.1 162.043 260.492C161.523 260.876 160.875 261.068 160.099 261.068C159.467 261.068 158.899 260.928 158.395 260.648C157.899 260.36 157.507 259.96 157.219 259.448C156.939 258.928 156.799 258.328 156.799 257.648C156.799 256.968 156.935 256.372 157.207 255.86C157.487 255.34 157.875 254.94 158.371 254.66C158.875 254.38 159.451 254.24 160.099 254.24C160.723 254.24 161.279 254.376 161.767 254.648C162.255 254.92 162.635 255.304 162.907 255.8C163.179 256.288 163.315 256.852 163.315 257.492ZM161.887 257.06C161.879 256.556 161.699 256.152 161.347 255.848C160.995 255.544 160.559 255.392 160.039 255.392C159.567 255.392 159.163 255.544 158.827 255.848C158.491 256.144 158.291 256.548 158.227 257.06H161.887ZM167.998 254.24C168.518 254.24 168.982 254.348 169.39 254.564C169.806 254.78 170.13 255.1 170.362 255.524C170.594 255.948 170.71 256.46 170.71 257.06V260.96H169.354V257.264C169.354 256.672 169.206 256.22 168.91 255.908C168.614 255.588 168.21 255.428 167.698 255.428C167.186 255.428 166.778 255.588 166.474 255.908C166.178 256.22 166.03 256.672 166.03 257.264V260.96H164.662V254.348H166.03V255.104C166.254 254.832 166.538 254.62 166.882 254.468C167.234 254.316 167.606 254.24 167.998 254.24ZM174.051 255.464V259.124C174.051 259.372 174.107 259.552 174.219 259.664C174.339 259.768 174.539 259.82 174.819 259.82H175.659V260.96H174.579C173.963 260.96 173.491 260.816 173.163 260.528C172.835 260.24 172.671 259.772 172.671 259.124V255.464H171.891V254.348H172.671V252.704H174.051V254.348H175.659V255.464H174.051ZM184.369 260.96L182.449 257.624H181.405V260.96H180.037V252.62H182.917C183.557 252.62 184.097 252.732 184.537 252.956C184.985 253.18 185.317 253.48 185.533 253.856C185.757 254.232 185.869 254.652 185.869 255.116C185.869 255.66 185.709 256.156 185.389 256.604C185.077 257.044 184.593 257.344 183.937 257.504L186.001 260.96H184.369ZM181.405 256.532H182.917C183.429 256.532 183.813 256.404 184.069 256.148C184.333 255.892 184.465 255.548 184.465 255.116C184.465 254.684 184.337 254.348 184.081 254.108C183.825 253.86 183.437 253.736 182.917 253.736H181.405V256.532ZM190.487 261.068C189.863 261.068 189.299 260.928 188.795 260.648C188.291 260.36 187.895 259.96 187.607 259.448C187.319 258.928 187.175 258.328 187.175 257.648C187.175 256.976 187.323 256.38 187.619 255.86C187.915 255.34 188.319 254.94 188.831 254.66C189.343 254.38 189.915 254.24 190.547 254.24C191.179 254.24 191.751 254.38 192.263 254.66C192.775 254.94 193.179 255.34 193.475 255.86C193.771 256.38 193.919 256.976 193.919 257.648C193.919 258.32 193.767 258.916 193.463 259.436C193.159 259.956 192.743 260.36 192.215 260.648C191.695 260.928 191.119 261.068 190.487 261.068ZM190.487 259.88C190.839 259.88 191.167 259.796 191.471 259.628C191.783 259.46 192.035 259.208 192.227 258.872C192.419 258.536 192.515 258.128 192.515 257.648C192.515 257.168 192.423 256.764 192.239 256.436C192.055 256.1 191.811 255.848 191.507 255.68C191.203 255.512 190.875 255.428 190.523 255.428C190.171 255.428 189.843 255.512 189.539 255.68C189.243 255.848 189.007 256.1 188.831 256.436C188.655 256.764 188.567 257.168 188.567 257.648C188.567 258.36 188.747 258.912 189.107 259.304C189.475 259.688 189.935 259.88 190.487 259.88ZM203.275 254.24C203.795 254.24 204.259 254.348 204.667 254.564C205.083 254.78 205.407 255.1 205.639 255.524C205.879 255.948 205.999 256.46 205.999 257.06V260.96H204.643V257.264C204.643 256.672 204.495 256.22 204.199 255.908C203.903 255.588 203.499 255.428 202.987 255.428C202.475 255.428 202.067 255.588 201.763 255.908C201.467 256.22 201.319 256.672 201.319 257.264V260.96H199.963V257.264C199.963 256.672 199.815 256.22 199.519 255.908C199.223 255.588 198.819 255.428 198.307 255.428C197.795 255.428 197.387 255.588 197.083 255.908C196.787 256.22 196.639 256.672 196.639 257.264V260.96H195.271V254.348H196.639V255.104C196.863 254.832 197.147 254.62 197.491 254.468C197.835 254.316 198.203 254.24 198.595 254.24C199.123 254.24 199.595 254.352 200.011 254.576C200.427 254.8 200.747 255.124 200.971 255.548C201.171 255.148 201.483 254.832 201.907 254.6C202.331 254.36 202.787 254.24 203.275 254.24ZM207.284 257.624C207.284 256.96 207.42 256.372 207.692 255.86C207.972 255.348 208.348 254.952 208.82 254.672C209.3 254.384 209.828 254.24 210.404 254.24C210.924 254.24 211.376 254.344 211.76 254.552C212.152 254.752 212.464 255.004 212.696 255.308V254.348H214.076V260.96H212.696V259.976C212.464 260.288 212.148 260.548 211.748 260.756C211.348 260.964 210.892 261.068 210.38 261.068C209.812 261.068 209.292 260.924 208.82 260.636C208.348 260.34 207.972 259.932 207.692 259.412C207.42 258.884 207.284 258.288 207.284 257.624ZM212.696 257.648C212.696 257.192 212.6 256.796 212.408 256.46C212.224 256.124 211.98 255.868 211.676 255.692C211.372 255.516 211.044 255.428 210.692 255.428C210.34 255.428 210.012 255.516 209.708 255.692C209.404 255.86 209.156 256.112 208.964 256.448C208.78 256.776 208.688 257.168 208.688 257.624C208.688 258.08 208.78 258.48 208.964 258.824C209.156 259.168 209.404 259.432 209.708 259.616C210.02 259.792 210.348 259.88 210.692 259.88C211.044 259.88 211.372 259.792 211.676 259.616C211.98 259.44 212.224 259.184 212.408 258.848C212.6 258.504 212.696 258.104 212.696 257.648ZM219.209 254.24C219.729 254.24 220.193 254.348 220.601 254.564C221.017 254.78 221.341 255.1 221.573 255.524C221.805 255.948 221.921 256.46 221.921 257.06V260.96H220.565V257.264C220.565 256.672 220.417 256.22 220.121 255.908C219.825 255.588 219.421 255.428 218.909 255.428C218.397 255.428 217.989 255.588 217.685 255.908C217.389 256.22 217.241 256.672 217.241 257.264V260.96H215.873V254.348H217.241V255.104C217.465 254.832 217.749 254.62 218.093 254.468C218.445 254.316 218.817 254.24 219.209 254.24ZM226.066 261.068C225.546 261.068 225.078 260.976 224.662 260.792C224.254 260.6 223.93 260.344 223.69 260.024C223.45 259.696 223.322 259.332 223.306 258.932H224.722C224.746 259.212 224.878 259.448 225.118 259.64C225.366 259.824 225.674 259.916 226.042 259.916C226.426 259.916 226.722 259.844 226.93 259.7C227.146 259.548 227.254 259.356 227.254 259.124C227.254 258.876 227.134 258.692 226.894 258.572C226.662 258.452 226.29 258.32 225.778 258.176C225.282 258.04 224.878 257.908 224.566 257.78C224.254 257.652 223.982 257.456 223.75 257.192C223.526 256.928 223.414 256.58 223.414 256.148C223.414 255.796 223.518 255.476 223.726 255.188C223.934 254.892 224.23 254.66 224.614 254.492C225.006 254.324 225.454 254.24 225.958 254.24C226.71 254.24 227.314 254.432 227.77 254.816C228.234 255.192 228.482 255.708 228.514 256.364H227.146C227.122 256.068 227.002 255.832 226.786 255.656C226.57 255.48 226.278 255.392 225.91 255.392C225.55 255.392 225.274 255.46 225.082 255.596C224.89 255.732 224.794 255.912 224.794 256.136C224.794 256.312 224.858 256.46 224.986 256.58C225.114 256.7 225.27 256.796 225.454 256.868C225.638 256.932 225.91 257.016 226.27 257.12C226.75 257.248 227.142 257.38 227.446 257.516C227.758 257.644 228.026 257.836 228.25 258.092C228.474 258.348 228.59 258.688 228.598 259.112C228.598 259.488 228.494 259.824 228.286 260.12C228.078 260.416 227.782 260.648 227.398 260.816C227.022 260.984 226.578 261.068 226.066 261.068Z" fill="#3C315B"/>
<rect x="121.942" y="279.064" width="278.112" height="30.432" rx="6.216" fill="#F4F2FF"/>
<rect x="121.942" y="279.064" width="278.112" height="30.432" rx="6.216" stroke="#AB9FF2" stroke-width="1.008"/>
<path d="M135.764 296.576H132.272L131.672 298.28H130.244L133.232 289.928H134.816L137.804 298.28H136.364L135.764 296.576ZM135.38 295.46L134.024 291.584L132.656 295.46H135.38ZM142.439 291.56C142.959 291.56 143.423 291.668 143.831 291.884C144.247 292.1 144.571 292.42 144.803 292.844C145.035 293.268 145.151 293.78 145.151 294.38V298.28H143.795V294.584C143.795 293.992 143.647 293.54 143.351 293.228C143.055 292.908 142.651 292.748 142.139 292.748C141.627 292.748 141.219 292.908 140.915 293.228C140.619 293.54 140.471 293.992 140.471 294.584V298.28H139.103V291.668H140.471V292.424C140.695 292.152 140.979 291.94 141.323 291.788C141.675 291.636 142.047 291.56 142.439 291.56ZM146.44 294.968C146.44 294.288 146.576 293.692 146.848 293.18C147.128 292.66 147.512 292.26 148 291.98C148.488 291.7 149.048 291.56 149.68 291.56C150.48 291.56 151.14 291.752 151.66 292.136C152.188 292.512 152.544 293.052 152.728 293.756H151.252C151.132 293.428 150.94 293.172 150.676 292.988C150.412 292.804 150.08 292.712 149.68 292.712C149.12 292.712 148.672 292.912 148.336 293.312C148.008 293.704 147.844 294.256 147.844 294.968C147.844 295.68 148.008 296.236 148.336 296.636C148.672 297.036 149.12 297.236 149.68 297.236C150.472 297.236 150.996 296.888 151.252 296.192H152.728C152.536 296.864 152.176 297.4 151.648 297.8C151.12 298.192 150.464 298.388 149.68 298.388C149.048 298.388 148.488 298.248 148 297.968C147.512 297.68 147.128 297.28 146.848 296.768C146.576 296.248 146.44 295.648 146.44 294.968ZM154.787 290.792C154.539 290.792 154.331 290.708 154.163 290.54C153.995 290.372 153.911 290.164 153.911 289.916C153.911 289.668 153.995 289.46 154.163 289.292C154.331 289.124 154.539 289.04 154.787 289.04C155.027 289.04 155.231 289.124 155.399 289.292C155.567 289.46 155.651 289.668 155.651 289.916C155.651 290.164 155.567 290.372 155.399 290.54C155.231 290.708 155.027 290.792 154.787 290.792ZM155.459 291.668V298.28H154.091V291.668H155.459ZM163.315 294.812C163.315 295.06 163.299 295.284 163.267 295.484H158.215C158.255 296.012 158.451 296.436 158.803 296.756C159.155 297.076 159.587 297.236 160.099 297.236C160.835 297.236 161.355 296.928 161.659 296.312H163.135C162.935 296.92 162.571 297.42 162.043 297.812C161.523 298.196 160.875 298.388 160.099 298.388C159.467 298.388 158.899 298.248 158.395 297.968C157.899 297.68 157.507 297.28 157.219 296.768C156.939 296.248 156.799 295.648 156.799 294.968C156.799 294.288 156.935 293.692 157.207 293.18C157.487 292.66 157.875 292.26 158.371 291.98C158.875 291.7 159.451 291.56 160.099 291.56C160.723 291.56 161.279 291.696 161.767 291.968C162.255 292.24 162.635 292.624 162.907 293.12C163.179 293.608 163.315 294.172 163.315 294.812ZM161.887 294.38C161.879 293.876 161.699 293.472 161.347 293.168C160.995 292.864 160.559 292.712 160.039 292.712C159.567 292.712 159.163 292.864 158.827 293.168C158.491 293.464 158.291 293.868 158.227 294.38H161.887ZM167.998 291.56C168.518 291.56 168.982 291.668 169.39 291.884C169.806 292.1 170.13 292.42 170.362 292.844C170.594 293.268 170.71 293.78 170.71 294.38V298.28H169.354V294.584C169.354 293.992 169.206 293.54 168.91 293.228C168.614 292.908 168.21 292.748 167.698 292.748C167.186 292.748 166.778 292.908 166.474 293.228C166.178 293.54 166.03 293.992 166.03 294.584V298.28H164.662V291.668H166.03V292.424C166.254 292.152 166.538 291.94 166.882 291.788C167.234 291.636 167.606 291.56 167.998 291.56ZM174.051 292.784V296.444C174.051 296.692 174.107 296.872 174.219 296.984C174.339 297.088 174.539 297.14 174.819 297.14H175.659V298.28H174.579C173.963 298.28 173.491 298.136 173.163 297.848C172.835 297.56 172.671 297.092 172.671 296.444V292.784H171.891V291.668H172.671V290.024H174.051V291.668H175.659V292.784H174.051ZM181.405 291.044V293.492H184.285V294.608H181.405V297.164H184.645V298.28H180.037V289.928H184.645V291.044H181.405ZM188.994 291.56C189.506 291.56 189.958 291.664 190.35 291.872C190.75 292.072 191.062 292.324 191.286 292.628V291.668H192.666V298.388C192.666 298.996 192.538 299.536 192.282 300.008C192.026 300.488 191.654 300.864 191.166 301.136C190.686 301.408 190.11 301.544 189.438 301.544C188.542 301.544 187.798 301.332 187.206 300.908C186.614 300.492 186.278 299.924 186.198 299.204H187.554C187.658 299.548 187.878 299.824 188.214 300.032C188.558 300.248 188.966 300.356 189.438 300.356C189.99 300.356 190.434 300.188 190.77 299.852C191.114 299.516 191.286 299.028 191.286 298.388V297.284C191.054 297.596 190.738 297.86 190.338 298.076C189.946 298.284 189.498 298.388 188.994 298.388C188.418 298.388 187.89 298.244 187.41 297.956C186.938 297.66 186.562 297.252 186.282 296.732C186.01 296.204 185.874 295.608 185.874 294.944C185.874 294.28 186.01 293.692 186.282 293.18C186.562 292.668 186.938 292.272 187.41 291.992C187.89 291.704 188.418 291.56 188.994 291.56ZM191.286 294.968C191.286 294.512 191.19 294.116 190.998 293.78C190.814 293.444 190.57 293.188 190.266 293.012C189.962 292.836 189.634 292.748 189.282 292.748C188.93 292.748 188.602 292.836 188.298 293.012C187.994 293.18 187.746 293.432 187.554 293.768C187.37 294.096 187.278 294.488 187.278 294.944C187.278 295.4 187.37 295.8 187.554 296.144C187.746 296.488 187.994 296.752 188.298 296.936C188.61 297.112 188.938 297.2 189.282 297.2C189.634 297.2 189.962 297.112 190.266 296.936C190.57 296.76 190.814 296.504 190.998 296.168C191.19 295.824 191.286 295.424 191.286 294.968ZM200.414 291.668L196.358 301.388H194.942L196.286 298.172L193.682 291.668H195.206L197.066 296.708L198.998 291.668H200.414ZM202.815 292.64C203.047 292.336 203.363 292.08 203.763 291.872C204.163 291.664 204.615 291.56 205.119 291.56C205.695 291.56 206.219 291.704 206.691 291.992C207.171 292.272 207.547 292.668 207.819 293.18C208.091 293.692 208.227 294.28 208.227 294.944C208.227 295.608 208.091 296.204 207.819 296.732C207.547 297.252 207.171 297.66 206.691 297.956C206.219 298.244 205.695 298.388 205.119 298.388C204.615 298.388 204.167 298.288 203.775 298.088C203.383 297.88 203.063 297.624 202.815 297.32V301.424H201.447V291.668H202.815V292.64ZM206.835 294.944C206.835 294.488 206.739 294.096 206.547 293.768C206.363 293.432 206.115 293.18 205.803 293.012C205.499 292.836 205.171 292.748 204.819 292.748C204.475 292.748 204.147 292.836 203.835 293.012C203.531 293.188 203.283 293.444 203.091 293.78C202.907 294.116 202.815 294.512 202.815 294.968C202.815 295.424 202.907 295.824 203.091 296.168C203.283 296.504 203.531 296.76 203.835 296.936C204.147 297.112 204.475 297.2 204.819 297.2C205.171 297.2 205.499 297.112 205.803 296.936C206.115 296.752 206.363 296.488 206.547 296.144C206.739 295.8 206.835 295.4 206.835 294.944ZM211.176 292.784V296.444C211.176 296.692 211.232 296.872 211.344 296.984C211.464 297.088 211.664 297.14 211.944 297.14H212.784V298.28H211.704C211.088 298.28 210.616 298.136 210.288 297.848C209.96 297.56 209.796 297.092 209.796 296.444V292.784H209.016V291.668H209.796V290.024H211.176V291.668H212.784V292.784H211.176ZM214.741 290.792C214.493 290.792 214.285 290.708 214.117 290.54C213.949 290.372 213.865 290.164 213.865 289.916C213.865 289.668 213.949 289.46 214.117 289.292C214.285 289.124 214.493 289.04 214.741 289.04C214.981 289.04 215.185 289.124 215.353 289.292C215.521 289.46 215.605 289.668 215.605 289.916C215.605 290.164 215.521 290.372 215.353 290.54C215.185 290.708 214.981 290.792 214.741 290.792ZM215.413 291.668V298.28H214.045V291.668H215.413ZM216.753 294.944C216.753 294.28 216.889 293.692 217.161 293.18C217.441 292.668 217.817 292.272 218.289 291.992C218.769 291.704 219.297 291.56 219.873 291.56C220.393 291.56 220.845 291.664 221.229 291.872C221.621 292.072 221.933 292.324 222.165 292.628V291.668H223.545V298.28H222.165V297.296C221.933 297.608 221.617 297.868 221.217 298.076C220.817 298.284 220.361 298.388 219.849 298.388C219.281 298.388 218.761 298.244 218.289 297.956C217.817 297.66 217.441 297.252 217.161 296.732C216.889 296.204 216.753 295.608 216.753 294.944ZM222.165 294.968C222.165 294.512 222.069 294.116 221.877 293.78C221.693 293.444 221.449 293.188 221.145 293.012C220.841 292.836 220.513 292.748 220.161 292.748C219.809 292.748 219.481 292.836 219.177 293.012C218.873 293.18 218.625 293.432 218.433 293.768C218.249 294.096 218.157 294.488 218.157 294.944C218.157 295.4 218.249 295.8 218.433 296.144C218.625 296.488 218.873 296.752 219.177 296.936C219.489 297.112 219.817 297.2 220.161 297.2C220.513 297.2 220.841 297.112 221.145 296.936C221.449 296.76 221.693 296.504 221.877 296.168C222.069 295.824 222.165 295.424 222.165 294.968ZM228.677 291.56C229.197 291.56 229.661 291.668 230.069 291.884C230.485 292.1 230.809 292.42 231.041 292.844C231.273 293.268 231.389 293.78 231.389 294.38V298.28H230.033V294.584C230.033 293.992 229.885 293.54 229.589 293.228C229.293 292.908 228.889 292.748 228.377 292.748C227.865 292.748 227.457 292.908 227.153 293.228C226.857 293.54 226.709 293.992 226.709 294.584V298.28H225.341V291.668H226.709V292.424C226.933 292.152 227.217 291.94 227.561 291.788C227.913 291.636 228.285 291.56 228.677 291.56ZM235.534 298.388C235.014 298.388 234.546 298.296 234.13 298.112C233.722 297.92 233.398 297.664 233.158 297.344C232.918 297.016 232.79 296.652 232.774 296.252H234.19C234.214 296.532 234.346 296.768 234.586 296.96C234.834 297.144 235.142 297.236 235.51 297.236C235.894 297.236 236.19 297.164 236.398 297.02C236.614 296.868 236.722 296.676 236.722 296.444C236.722 296.196 236.602 296.012 236.362 295.892C236.13 295.772 235.758 295.64 235.246 295.496C234.75 295.36 234.346 295.228 234.034 295.1C233.722 294.972 233.45 294.776 233.218 294.512C232.994 294.248 232.882 293.9 232.882 293.468C232.882 293.116 232.986 292.796 233.194 292.508C233.402 292.212 233.698 291.98 234.082 291.812C234.474 291.644 234.922 291.56 235.426 291.56C236.178 291.56 236.782 291.752 237.238 292.136C237.702 292.512 237.95 293.028 237.982 293.684H236.614C236.59 293.388 236.47 293.152 236.254 292.976C236.038 292.8 235.746 292.712 235.378 292.712C235.018 292.712 234.742 292.78 234.55 292.916C234.358 293.052 234.262 293.232 234.262 293.456C234.262 293.632 234.326 293.78 234.454 293.9C234.582 294.02 234.738 294.116 234.922 294.188C235.106 294.252 235.378 294.336 235.738 294.44C236.218 294.568 236.61 294.7 236.914 294.836C237.226 294.964 237.494 295.156 237.718 295.412C237.942 295.668 238.058 296.008 238.066 296.432C238.066 296.808 237.962 297.144 237.754 297.44C237.546 297.736 237.25 297.968 236.866 298.136C236.49 298.304 236.046 298.388 235.534 298.388Z" fill="#3C315B"/>
<path d="M390.142 291.256L384.598 296.8L382.078 294.28" stroke="#786AF0" stroke-width="1.008" stroke-linecap="round" stroke-linejoin="round"/>
<rect x="121.438" y="315.88" width="279.12" height="31.44" rx="6.72" fill="#F7F8FA"/>
<path d="M135.764 333.897H132.272L131.672 335.601H130.244L133.232 327.249H134.816L137.804 335.601H136.364L135.764 333.897ZM135.38 332.781L134.024 328.905L132.656 332.781H135.38ZM142.439 328.881C142.959 328.881 143.423 328.989 143.831 329.205C144.247 329.421 144.571 329.741 144.803 330.165C145.035 330.589 145.151 331.101 145.151 331.701V335.601H143.795V331.905C143.795 331.313 143.647 330.861 143.351 330.549C143.055 330.229 142.651 330.069 142.139 330.069C141.627 330.069 141.219 330.229 140.915 330.549C140.619 330.861 140.471 331.313 140.471 331.905V335.601H139.103V328.989H140.471V329.745C140.695 329.473 140.979 329.261 141.323 329.109C141.675 328.957 142.047 328.881 142.439 328.881ZM146.44 332.289C146.44 331.609 146.576 331.013 146.848 330.501C147.128 329.981 147.512 329.581 148 329.301C148.488 329.021 149.048 328.881 149.68 328.881C150.48 328.881 151.14 329.073 151.66 329.457C152.188 329.833 152.544 330.373 152.728 331.077H151.252C151.132 330.749 150.94 330.493 150.676 330.309C150.412 330.125 150.08 330.033 149.68 330.033C149.12 330.033 148.672 330.233 148.336 330.633C148.008 331.025 147.844 331.577 147.844 332.289C147.844 333.001 148.008 333.557 148.336 333.957C148.672 334.357 149.12 334.557 149.68 334.557C150.472 334.557 150.996 334.209 151.252 333.513H152.728C152.536 334.185 152.176 334.721 151.648 335.121C151.12 335.513 150.464 335.709 149.68 335.709C149.048 335.709 148.488 335.569 148 335.289C147.512 335.001 147.128 334.601 146.848 334.089C146.576 333.569 146.44 332.969 146.44 332.289ZM154.787 328.113C154.539 328.113 154.331 328.029 154.163 327.861C153.995 327.693 153.911 327.485 153.911 327.237C153.911 326.989 153.995 326.781 154.163 326.613C154.331 326.445 154.539 326.361 154.787 326.361C155.027 326.361 155.231 326.445 155.399 326.613C155.567 326.781 155.651 326.989 155.651 327.237C155.651 327.485 155.567 327.693 155.399 327.861C155.231 328.029 155.027 328.113 154.787 328.113ZM155.459 328.989V335.601H154.091V328.989H155.459ZM163.315 332.133C163.315 332.381 163.299 332.605 163.267 332.805H158.215C158.255 333.333 158.451 333.757 158.803 334.077C159.155 334.397 159.587 334.557 160.099 334.557C160.835 334.557 161.355 334.249 161.659 333.633H163.135C162.935 334.241 162.571 334.741 162.043 335.133C161.523 335.517 160.875 335.709 160.099 335.709C159.467 335.709 158.899 335.569 158.395 335.289C157.899 335.001 157.507 334.601 157.219 334.089C156.939 333.569 156.799 332.969 156.799 332.289C156.799 331.609 156.935 331.013 157.207 330.501C157.487 329.981 157.875 329.581 158.371 329.301C158.875 329.021 159.451 328.881 160.099 328.881C160.723 328.881 161.279 329.017 161.767 329.289C162.255 329.561 162.635 329.945 162.907 330.441C163.179 330.929 163.315 331.493 163.315 332.133ZM161.887 331.701C161.879 331.197 161.699 330.793 161.347 330.489C160.995 330.185 160.559 330.033 160.039 330.033C159.567 330.033 159.163 330.185 158.827 330.489C158.491 330.785 158.291 331.189 158.227 331.701H161.887ZM167.998 328.881C168.518 328.881 168.982 328.989 169.39 329.205C169.806 329.421 170.13 329.741 170.362 330.165C170.594 330.589 170.71 331.101 170.71 331.701V335.601H169.354V331.905C169.354 331.313 169.206 330.861 168.91 330.549C168.614 330.229 168.21 330.069 167.698 330.069C167.186 330.069 166.778 330.229 166.474 330.549C166.178 330.861 166.03 331.313 166.03 331.905V335.601H164.662V328.989H166.03V329.745C166.254 329.473 166.538 329.261 166.882 329.109C167.234 328.957 167.606 328.881 167.998 328.881ZM174.051 330.105V333.765C174.051 334.013 174.107 334.193 174.219 334.305C174.339 334.409 174.539 334.461 174.819 334.461H175.659V335.601H174.579C173.963 335.601 173.491 335.457 173.163 335.169C172.835 334.881 172.671 334.413 172.671 333.765V330.105H171.891V328.989H172.671V327.345H174.051V328.989H175.659V330.105H174.051ZM186.073 329.661C185.857 329.245 185.557 328.933 185.173 328.725C184.789 328.509 184.345 328.401 183.841 328.401C183.289 328.401 182.797 328.525 182.365 328.773C181.933 329.021 181.593 329.373 181.345 329.829C181.105 330.285 180.985 330.813 180.985 331.413C180.985 332.013 181.105 332.545 181.345 333.009C181.593 333.465 181.933 333.817 182.365 334.065C182.797 334.313 183.289 334.437 183.841 334.437C184.585 334.437 185.189 334.229 185.653 333.813C186.117 333.397 186.401 332.833 186.505 332.121H183.373V331.029H187.969V332.097C187.881 332.745 187.649 333.341 187.273 333.885C186.905 334.429 186.421 334.865 185.821 335.193C185.229 335.513 184.569 335.673 183.841 335.673C183.057 335.673 182.341 335.493 181.693 335.133C181.045 334.765 180.529 334.257 180.145 333.609C179.769 332.961 179.581 332.229 179.581 331.413C179.581 330.597 179.769 329.865 180.145 329.217C180.529 328.569 181.045 328.065 181.693 327.705C182.349 327.337 183.065 327.153 183.841 327.153C184.729 327.153 185.517 327.373 186.205 327.813C186.901 328.245 187.405 328.861 187.717 329.661H186.073ZM190.686 329.949C190.886 329.613 191.15 329.353 191.478 329.169C191.814 328.977 192.21 328.881 192.666 328.881V330.297H192.318C191.782 330.297 191.374 330.433 191.094 330.705C190.822 330.977 190.686 331.449 190.686 332.121V335.601H189.318V328.989H190.686V329.949ZM199.983 332.133C199.983 332.381 199.967 332.605 199.935 332.805H194.883C194.923 333.333 195.119 333.757 195.471 334.077C195.823 334.397 196.255 334.557 196.767 334.557C197.503 334.557 198.023 334.249 198.327 333.633H199.803C199.603 334.241 199.239 334.741 198.711 335.133C198.191 335.517 197.543 335.709 196.767 335.709C196.135 335.709 195.567 335.569 195.063 335.289C194.567 335.001 194.175 334.601 193.887 334.089C193.607 333.569 193.467 332.969 193.467 332.289C193.467 331.609 193.603 331.013 193.875 330.501C194.155 329.981 194.543 329.581 195.039 329.301C195.543 329.021 196.119 328.881 196.767 328.881C197.391 328.881 197.947 329.017 198.435 329.289C198.923 329.561 199.303 329.945 199.575 330.441C199.847 330.929 199.983 331.493 199.983 332.133ZM198.555 331.701C198.547 331.197 198.367 330.793 198.015 330.489C197.663 330.185 197.227 330.033 196.707 330.033C196.235 330.033 195.831 330.185 195.495 330.489C195.159 330.785 194.959 331.189 194.895 331.701H198.555ZM207.39 332.133C207.39 332.381 207.374 332.605 207.342 332.805H202.29C202.33 333.333 202.526 333.757 202.878 334.077C203.23 334.397 203.662 334.557 204.174 334.557C204.91 334.557 205.43 334.249 205.734 333.633H207.21C207.01 334.241 206.646 334.741 206.118 335.133C205.598 335.517 204.95 335.709 204.174 335.709C203.542 335.709 202.974 335.569 202.47 335.289C201.974 335.001 201.582 334.601 201.294 334.089C201.014 333.569 200.874 332.969 200.874 332.289C200.874 331.609 201.01 331.013 201.282 330.501C201.562 329.981 201.95 329.581 202.446 329.301C202.95 329.021 203.526 328.881 204.174 328.881C204.798 328.881 205.354 329.017 205.842 329.289C206.33 329.561 206.71 329.945 206.982 330.441C207.254 330.929 207.39 331.493 207.39 332.133ZM205.962 331.701C205.954 331.197 205.774 330.793 205.422 330.489C205.07 330.185 204.634 330.033 204.114 330.033C203.642 330.033 203.238 330.185 202.902 330.489C202.566 330.785 202.366 331.189 202.302 331.701H205.962ZM211.352 332.301L214.4 335.601H212.552L210.104 332.757V335.601H208.736V326.721H210.104V331.881L212.504 328.989H214.4L211.352 332.301ZM217.78 335.709C217.26 335.709 216.792 335.617 216.376 335.433C215.968 335.241 215.644 334.985 215.404 334.665C215.164 334.337 215.036 333.973 215.02 333.573H216.436C216.46 333.853 216.592 334.089 216.832 334.281C217.08 334.465 217.388 334.557 217.756 334.557C218.14 334.557 218.436 334.485 218.644 334.341C218.86 334.189 218.968 333.997 218.968 333.765C218.968 333.517 218.848 333.333 218.608 333.213C218.376 333.093 218.004 332.961 217.492 332.817C216.996 332.681 216.592 332.549 216.28 332.421C215.968 332.293 215.696 332.097 215.464 331.833C215.24 331.569 215.128 331.221 215.128 330.789C215.128 330.437 215.232 330.117 215.44 329.829C215.648 329.533 215.944 329.301 216.328 329.133C216.72 328.965 217.168 328.881 217.672 328.881C218.424 328.881 219.028 329.073 219.484 329.457C219.948 329.833 220.196 330.349 220.228 331.005H218.86C218.836 330.709 218.716 330.473 218.5 330.297C218.284 330.121 217.992 330.033 217.624 330.033C217.264 330.033 216.988 330.101 216.796 330.237C216.604 330.373 216.508 330.553 216.508 330.777C216.508 330.953 216.572 331.101 216.7 331.221C216.828 331.341 216.984 331.437 217.168 331.509C217.352 331.573 217.624 331.657 217.984 331.761C218.464 331.889 218.856 332.021 219.16 332.157C219.472 332.285 219.74 332.477 219.964 332.733C220.188 332.989 220.304 333.329 220.312 333.753C220.312 334.129 220.208 334.465 220 334.761C219.792 335.057 219.496 335.289 219.112 335.457C218.736 335.625 218.292 335.709 217.78 335.709Z" fill="#3C315B"/>
</g>
<g filter="url(#filter1_d_3519_12018)">
<path d="M371.754 348L368.623 332.041L383 339.918L375.918 341.973L371.754 348Z" fill="black"/>
<path d="M371.754 348L368.623 332.041L383 339.918L375.918 341.973L371.754 348Z" stroke="white"/>
</g>
<g filter="url(#filter2_d_3519_12018)">
<path d="M379 348C379 346.895 379.895 346 381 346H443C452.389 346 460 353.611 460 363C460 372.389 452.389 380 443 380H403C389.745 380 379 369.255 379 356V348Z" fill="#4A87F2" shape-rendering="crispEdges"/>
<path d="M380 348C380 347.448 380.448 347 381 347H443C451.837 347 459 354.163 459 363C459 371.837 451.837 379 443 379H403C390.297 379 380 368.703 380 356V348Z" stroke="#649CFF" stroke-width="2" shape-rendering="crispEdges"/>
<path d="M398.72 367.084C398.136 367.084 397.608 366.984 397.136 366.784C396.672 366.584 396.304 366.296 396.032 365.92C395.76 365.544 395.62 365.1 395.612 364.588H397.412C397.436 364.932 397.556 365.204 397.772 365.404C397.996 365.604 398.3 365.704 398.684 365.704C399.076 365.704 399.384 365.612 399.608 365.428C399.832 365.236 399.944 364.988 399.944 364.684C399.944 364.436 399.868 364.232 399.716 364.072C399.564 363.912 399.372 363.788 399.14 363.7C398.916 363.604 398.604 363.5 398.204 363.388C397.66 363.228 397.216 363.072 396.872 362.92C396.536 362.76 396.244 362.524 395.996 362.212C395.756 361.892 395.636 361.468 395.636 360.94C395.636 360.444 395.76 360.012 396.008 359.644C396.256 359.276 396.604 358.996 397.052 358.804C397.5 358.604 398.012 358.504 398.588 358.504C399.452 358.504 400.152 358.716 400.688 359.14C401.232 359.556 401.532 360.14 401.588 360.892H399.74C399.724 360.604 399.6 360.368 399.368 360.184C399.144 359.992 398.844 359.896 398.468 359.896C398.14 359.896 397.876 359.98 397.676 360.148C397.484 360.316 397.388 360.56 397.388 360.88C397.388 361.104 397.46 361.292 397.604 361.444C397.756 361.588 397.94 361.708 398.156 361.804C398.38 361.892 398.692 361.996 399.092 362.116C399.636 362.276 400.08 362.436 400.424 362.596C400.768 362.756 401.064 362.996 401.312 363.316C401.56 363.636 401.684 364.056 401.684 364.576C401.684 365.024 401.568 365.44 401.336 365.824C401.104 366.208 400.764 366.516 400.316 366.748C399.868 366.972 399.336 367.084 398.72 367.084ZM404.821 361.312C405.037 361.008 405.333 360.756 405.709 360.556C406.093 360.348 406.529 360.244 407.017 360.244C407.585 360.244 408.097 360.384 408.553 360.664C409.017 360.944 409.381 361.344 409.645 361.864C409.917 362.376 410.053 362.972 410.053 363.652C410.053 364.332 409.917 364.936 409.645 365.464C409.381 365.984 409.017 366.388 408.553 366.676C408.097 366.964 407.585 367.108 407.017 367.108C406.529 367.108 406.097 367.008 405.721 366.808C405.353 366.608 405.053 366.356 404.821 366.052V370.168H403.141V360.352H404.821V361.312ZM408.337 363.652C408.337 363.252 408.253 362.908 408.085 362.62C407.925 362.324 407.709 362.1 407.437 361.948C407.173 361.796 406.885 361.72 406.573 361.72C406.269 361.72 405.981 361.8 405.709 361.96C405.445 362.112 405.229 362.336 405.061 362.632C404.901 362.928 404.821 363.276 404.821 363.676C404.821 364.076 404.901 364.424 405.061 364.72C405.229 365.016 405.445 365.244 405.709 365.404C405.981 365.556 406.269 365.632 406.573 365.632C406.885 365.632 407.173 365.552 407.437 365.392C407.709 365.232 407.925 365.004 408.085 364.708C408.253 364.412 408.337 364.06 408.337 363.652ZM410.841 363.652C410.841 362.98 410.973 362.384 411.237 361.864C411.509 361.344 411.873 360.944 412.329 360.664C412.793 360.384 413.309 360.244 413.877 360.244C414.373 360.244 414.805 360.344 415.173 360.544C415.549 360.744 415.849 360.996 416.073 361.3V360.352H417.765V367H416.073V366.028C415.857 366.34 415.557 366.6 415.173 366.808C414.797 367.008 414.361 367.108 413.865 367.108C413.305 367.108 412.793 366.964 412.329 366.676C411.873 366.388 411.509 365.984 411.237 365.464C410.973 364.936 410.841 364.332 410.841 363.652ZM416.073 363.676C416.073 363.268 415.993 362.92 415.833 362.632C415.673 362.336 415.457 362.112 415.185 361.96C414.913 361.8 414.621 361.72 414.309 361.72C413.997 361.72 413.709 361.796 413.445 361.948C413.181 362.1 412.965 362.324 412.797 362.62C412.637 362.908 412.557 363.252 412.557 363.652C412.557 364.052 412.637 364.404 412.797 364.708C412.965 365.004 413.181 365.232 413.445 365.392C413.717 365.552 414.005 365.632 414.309 365.632C414.621 365.632 414.913 365.556 415.185 365.404C415.457 365.244 415.673 365.02 415.833 364.732C415.993 364.436 416.073 364.084 416.073 363.676ZM421.086 361.384C421.302 361.032 421.582 360.756 421.926 360.556C422.278 360.356 422.678 360.256 423.126 360.256V362.02H422.682C422.154 362.02 421.754 362.144 421.482 362.392C421.218 362.64 421.086 363.072 421.086 363.688V367H419.406V360.352H421.086V361.384ZM428.194 367L425.938 364.168V367H424.258V358.12H425.938V363.172L428.17 360.352H430.354L427.426 363.688L430.378 367H428.194ZM432.01 367.084C431.706 367.084 431.454 366.992 431.254 366.808C431.062 366.616 430.966 366.38 430.966 366.1C430.966 365.82 431.062 365.588 431.254 365.404C431.454 365.212 431.706 365.116 432.01 365.116C432.306 365.116 432.55 365.212 432.742 365.404C432.934 365.588 433.03 365.82 433.03 366.1C433.03 366.38 432.934 366.616 432.742 366.808C432.55 366.992 432.306 367.084 432.01 367.084ZM436.063 359.98V362.08H438.883V363.412H436.063V365.632H439.243V367H434.383V358.612H439.243V359.98H436.063Z" fill="white"/>
</g>
<defs>
<filter id="filter0_d_3519_12018" x="73.0016" y="141.4" width="375.997" height="255.76" filterUnits="userSpaceOnUse" color-interpolation-filters="sRGB">
<feFlood flood-opacity="0" result="BackgroundImageFix"/>
<feColorMatrix in="SourceAlpha" type="matrix" values="0 0 0 0 0 0 0 0 0 0 0 0 0 0 0 0 0 0 127 0" result="hardAlpha"/>
<feOffset dy="1.4"/>
<feGaussianBlur stdDeviation="16.8"/>
<feComposite in2="hardAlpha" operator="out"/>
<feColorMatrix type="matrix" values="0 0 0 0 0.353831 0 0 0 0 0.347136 0 0 0 0 0.374886 0 0 0 0.09 0"/>
<feBlend mode="normal" in2="BackgroundImageFix" result="effect1_dropShadow_3519_12018"/>
<feBlend mode="normal" in="SourceGraphic" in2="effect1_dropShadow_3519_12018" result="shape"/>
</filter>
<filter id="filter1_d_3519_12018" x="365.922" y="330.091" width="20.375" height="22.1733" filterUnits="userSpaceOnUse" color-interpolation-filters="sRGB">
<feFlood flood-opacity="0" result="BackgroundImageFix"/>
<feColorMatrix in="SourceAlpha" type="matrix" values="0 0 0 0 0 0 0 0 0 0 0 0 0 0 0 0 0 0 127 0" result="hardAlpha"/>
<feOffset dy="1"/>
<feGaussianBlur stdDeviation="1"/>
<feComposite in2="hardAlpha" operator="out"/>
<feColorMatrix type="matrix" values="0 0 0 0 0 0 0 0 0 0 0 0 0 0 0 0 0 0 0.25 0"/>
<feBlend mode="normal" in2="BackgroundImageFix" result="effect1_dropShadow_3519_12018"/>
<feBlend mode="normal" in="SourceGraphic" in2="effect1_dropShadow_3519_12018" result="shape"/>
</filter>
<filter id="filter2_d_3519_12018" x="373" y="340" width="101" height="54" filterUnits="userSpaceOnUse" color-interpolation-filters="sRGB">
<feFlood flood-opacity="0" result="BackgroundImageFix"/>
<feColorMatrix in="SourceAlpha" type="matrix" values="0 0 0 0 0 0 0 0 0 0 0 0 0 0 0 0 0 0 127 0" result="hardAlpha"/>
<feOffset dx="4" dy="4"/>
<feGaussianBlur stdDeviation="5"/>
<feComposite in2="hardAlpha" operator="out"/>
<feColorMatrix type="matrix" values="0 0 0 0 0.180392 0 0 0 0 0.564706 0 0 0 0 0.980392 0 0 0 0.16 0"/>
<feBlend mode="normal" in2="BackgroundImageFix" result="effect1_dropShadow_3519_12018"/>
<feBlend mode="normal" in="SourceGraphic" in2="effect1_dropShadow_3519_12018" result="shape"/>
</filter>
</defs>
</svg>
